<svg xmlns="http://www.w3.org/2000/svg">
    <symbol id='logo' viewBox="0 0 91 23">
        <path
            d="M2.04647 0.991577C3.1512 0.991577 4.05672 1.89299 4.05672 2.99271V9.64513H13.4741V2.99271C13.4741 1.89299 14.3796 0.991577 15.5206 0.991577C16.6615 0.991577 17.5308 1.89299 17.5308 2.99271V21.3455C17.5308 21.67 17.2592 21.9404 16.9332 21.9404H14.0717C13.7458 21.9404 13.4741 21.67 13.4741 21.3455V13.2508H4.05672V21.3274C4.05672 21.6519 3.78506 21.9224 3.45908 21.9224H0.597642C0.271655 21.9224 0 21.6519 0 21.3274V2.99271C0 1.89299 0.905518 0.991577 2.04647 0.991577Z"
        />
        <path
            d="M22.9096 0C24.1954 0 25.2458 1.04564 25.2458 2.32564C25.2458 3.60565 24.1954 4.65129 22.9096 4.65129C21.6237 4.65129 20.5371 3.60565 20.5371 2.32564C20.5371 1.04564 21.5875 0 22.9096 0ZM22.9096 6.382C23.96 6.382 24.8293 7.24735 24.8293 8.29299V21.3635C24.8293 21.67 24.5576 21.9404 24.2497 21.9404H21.5151C21.2072 21.9404 20.9355 21.67 20.9355 21.3635V8.29299C20.9355 7.24735 21.8048 6.382 22.8915 6.382H22.9096Z"
        />
        <path
            d="M46.0284 1H53.0371C57.6009 1 59.8647 4.3172 59.8647 7.61637C59.8647 9.97807 58.7237 12.3398 56.4056 13.5116L59.593 19.0102C60.1725 19.9657 59.8284 21.1916 58.8686 21.7685C57.8725 22.3454 56.641 22.0029 56.0796 21.0474L52.1678 14.2508H48.0567V21.3359C48.0567 21.6604 47.7851 21.9308 47.4591 21.9308H44.5976C44.2717 21.9308 44 21.6604 44 21.3359V3.00114C44 1.90141 44.9055 1 46.0465 1H46.0284ZM52.8922 10.4288C54.8843 10.4288 55.8442 9.02257 55.8442 7.61637C55.8442 6.21016 54.8843 4.84002 52.8922 4.84002H48.0567V10.4288H52.8922Z"
        />
        <path
            d="M69.7882 6.35437C74.0803 6.35437 77.1591 9.4372 77.1591 13.782C77.1591 15.3144 76.0725 15.693 75.2937 15.693H66.0574C66.5645 17.604 68.1039 18.866 70.0779 18.866C71.2189 18.866 72.1606 18.6857 73.048 18.1448C73.537 17.8744 74.0079 17.7482 74.4063 17.7482C75.4205 17.7482 76.1268 18.5234 76.1268 19.3888C76.1268 20.0198 75.7646 20.6688 74.9858 21.1556C73.5732 22.0209 71.8527 22.3274 70.0779 22.3274C65.4236 22.3274 62.1094 19.0102 62.1094 14.3409C62.1094 9.67157 65.2968 6.35437 69.7701 6.35437H69.7882ZM73.3016 12.9707C72.9937 11.0778 71.6173 9.83382 69.7882 9.83382C67.959 9.83382 66.5102 11.0597 66.0574 12.9707H73.3016Z"
        />
        <path
            d="M88.8057 7.36391C89.5663 7.85068 89.8923 8.49969 89.8923 9.13068C89.8923 9.99604 89.2222 10.7713 88.2624 10.7713C87.864 10.7713 87.4293 10.627 86.9765 10.3746C86.1978 9.97801 85.4372 9.79773 84.5679 9.79773C83.6986 9.79773 83.1553 10.2484 83.1553 10.9335C83.1553 13.1149 90.5805 12.0332 90.5805 17.4958C90.5805 20.5245 88.2986 22.3995 84.7127 22.3995C82.9923 22.3995 81.3804 22.1651 80.0765 21.3899C79.2978 20.9031 78.9355 20.2541 78.9355 19.6231C78.9355 18.7578 79.6237 17.9826 80.656 17.9826C81.0545 17.9826 81.5253 18.1268 82.0143 18.3792C82.8836 18.8299 83.7348 18.9561 84.7127 18.9561C86.071 18.9561 86.7592 18.271 86.7592 17.604C86.7592 15.2062 79.334 16.2879 79.334 11.0417C79.334 8.17518 81.3261 6.3363 84.5679 6.3363C86.1254 6.3363 87.6104 6.60673 88.8057 7.34589V7.36391Z"
        />
        <rect x="26.9746" y="14.4747" width="7.35482" height="7.35483" rx="1.07143"
            fill-opacity="0.3" />
        <rect x="30.748" y="10.6038" width="7.54837" height="7.54838" rx="1.07143"
            fill-opacity="0.6" />
        <rect x="34.6191" y="6.82959" width="7.35482" height="7.35483" rx="1.07143" />
    </symbol>
    <symbol id='lightning' viewBox="0 0 17 16">
        <rect width="16" height="16" transform="translate(0.5)" fill="white" fill-opacity="0.01" />
        <path fill-rule="evenodd" clip-rule="evenodd"
            d="M9.77691 0.0430443C10.003 0.139774 10.1336 0.378514 10.0932 0.621051L9.13001 6.40001H13.8338C14.0357 6.40001 14.2205 6.51414 14.3108 6.69484C14.4012 6.87552 14.3816 7.09173 14.2604 7.25334L7.86043 15.7867C7.71291 15.9834 7.45002 16.0537 7.22396 15.957C6.9979 15.8603 6.86727 15.6215 6.9077 15.379L7.87085 9.6H3.16712C2.96511 9.6 2.78044 9.48587 2.6901 9.30518C2.59976 9.1245 2.61925 8.90828 2.74045 8.74667L9.14043 0.213374C9.28796 0.0166672 9.55085 -0.0536855 9.77691 0.0430443ZM4.23379 8.53334H8.50043C8.65721 8.53334 8.80604 8.60231 8.90738 8.72194C9.00871 8.84156 9.05228 8.99971 9.02651 9.15435L8.31942 13.3969L12.7671 7.46668H8.50043C8.34366 7.46668 8.19483 7.3977 8.09349 7.27808C7.99216 7.15845 7.94858 7.00031 7.97436 6.84566L8.68146 2.60311L4.23379 8.53334Z"
        />
    </symbol>
    <symbol id='basket' viewBox="0 0 20 20" fill="none">
        <path
            d="M1.66699 2.5H3.75033L5.41699 14.1667H14.167M14.167 14.1667C13.2465 14.1667 12.5003 14.9129 12.5003 15.8333C12.5003 16.7538 13.2465 17.5 14.167 17.5C15.0875 17.5 15.8337 16.7538 15.8337 15.8333C15.8337 14.9129 15.0875 14.1667 14.167 14.1667ZM5.05984 11.6667H15.0003L17.5003 4.16667H3.98841M9.16699 15.8333C9.16699 16.7538 8.4208 17.5 7.50033 17.5C6.57985 17.5 5.83366 16.7538 5.83366 15.8333C5.83366 14.9129 6.57985 14.1667 7.50033 14.1667C8.4208 14.1667 9.16699 14.9129 9.16699 15.8333Z"
            stroke-width="1.25" stroke-linecap="round" stroke-linejoin="round" />
    </symbol>
    <symbol id='search' viewBox="0 0 19 18" fill="none">
        <path fill-rule="evenodd" clip-rule="evenodd"
            d="M13.5909 7.36388C13.5909 10.527 11.0267 13.0912 7.86364 13.0912C4.70055 13.0912 2.13636 10.527 2.13636 7.36388C2.13636 4.20079 4.70055 1.63661 7.86364 1.63661C11.0267 1.63661 13.5909 4.20079 13.5909 7.36388ZM12.4599 13.1172C11.2002 14.125 9.60229 14.7275 7.86364 14.7275C3.79681 14.7275 0.5 11.4307 0.5 7.36388C0.5 3.29706 3.79681 0.000244141 7.86364 0.000244141C11.9305 0.000244141 15.2273 3.29706 15.2273 7.36388C15.2273 9.10253 14.6248 10.7004 13.6169 11.9602L18.2604 16.6034C18.5799 16.923 18.5799 17.4411 18.2604 17.7607C17.9409 18.0801 17.4228 18.0801 17.1032 17.7607L12.4599 13.1172Z"
            fill="#1C2024" />
    </symbol>
    <symbol id='arrow-bottom' viewBox="0 0 16 16" fill="none">
        <rect width="16" height="16" fill="white" fill-opacity="0.01" />
        <path fill-rule="evenodd" clip-rule="evenodd"
            d="M3.34347 6.56859C3.54493 6.3537 3.88244 6.34282 4.09732 6.54427L7.99922 10.2023L11.9011 6.54427C12.116 6.34282 12.4535 6.3537 12.655 6.56859C12.8564 6.78348 12.8455 7.121 12.6307 7.32245L8.36399 11.3225C8.15884 11.5148 7.8396 11.5148 7.63445 11.3225L3.36779 7.32245C3.15289 7.121 3.14202 6.78348 3.34347 6.56859Z"
            fill="#1C2024" />
    </symbol>
    <symbol id='video' viewBox="0 0 25 24" fill='none'>
        <path
            d="M16.5 9L21.5 7V17L16.5 15M4.5 5.5H15.5C16.0523 5.5 16.5 5.94772 16.5 6.5V17.5C16.5 18.0523 16.0523 18.5 15.5 18.5H4.5C3.94772 18.5 3.5 18.0523 3.5 17.5V6.5C3.5 5.94772 3.94772 5.5 4.5 5.5Z"
            stroke-width="1.5" stroke-linecap="round" stroke-linejoin="round" />
    </symbol>
    <symbol id='camera' viewBox="0 0 25 24" fill='none'>
        <path
            d="M21.5 17V9C21.5 7.89543 20.6046 7 19.5 7H17C16.4477 7 16 6.55228 16 6C16 5.44772 15.5523 5 15 5H10C9.44772 5 9 5.44772 9 6C9 6.55228 8.55228 7 8 7H5.5C4.39543 7 3.5 7.89543 3.5 9V17C3.5 18.1046 4.39543 19 5.5 19H19.5C20.6046 19 21.5 18.1046 21.5 17Z"
            stroke-width="1.5" />
        <path
            d="M15.5 13C15.5 14.6569 14.1569 16 12.5 16C10.8431 16 9.5 14.6569 9.5 13C9.5 11.3431 10.8431 10 12.5 10C14.1569 10 15.5 11.3431 15.5 13Z"
            stroke-width="1.5" />
    </symbol>
    <symbol id='music' viewBox="0 0 24 24" fill='none'>
        <path
            d="M9 17.5V6L20 3V16.5M9 17.5C9 18.8807 7.88071 20 6.5 20C5.11929 20 4 18.8807 4 17.5C4 16.1193 5.11929 15 6.5 15C7.88071 15 9 16.1193 9 17.5ZM20 16.5C20 17.8807 18.8807 19 17.5 19C16.1193 19 15 17.8807 15 16.5C15 15.1193 16.1193 14 17.5 14C18.8807 14 20 15.1193 20 16.5Z"
            stroke-width="1.5" stroke-linecap="round" stroke-linejoin="round" />
    </symbol>
    <symbol id='image' viewBox="0 0 24 24" fill='none'>
        <path
            d="M4.02693 18.329C4.18385 19.277 5.0075 20 6 20H18C19.1046 20 20 19.1046 20 18V14.1901M4.02693 18.329C4.00922 18.222 4 18.1121 4 18V6C4 4.89543 4.89543 4 6 4H18C19.1046 4 20 4.89543 20 6V14.1901M4.02693 18.329L7.84762 14.5083C8.52765 13.9133 9.52219 13.8482 10.274 14.3494L10.7832 14.6888C11.5078 15.1719 12.4619 15.1305 13.142 14.5865L15.7901 12.4679C16.4651 11.9279 17.4053 11.8856 18.1228 12.3484C18.2023 12.3997 18.2731 12.4632 18.34 12.5302L20 14.1901M11 9C11 10.1046 10.1046 11 9 11C7.89543 11 7 10.1046 7 9C7 7.89543 7.89543 7 9 7C10.1046 7 11 7.89543 11 9Z"
            stroke-width="1.5" stroke-linecap="round" stroke-linejoin="round" />
    </symbol>
    <symbol id='sound' viewBox="0 0 25 24" fill='none'>
        <path
            d="M16.5 9C17 9.5 17.5 10.5 17.5 12C17.5 13.5 17 14.5 16.5 15M19.5 6C21 7.5 21.5 10 21.5 12C21.5 14 21 16.5 19.5 18M13.5 3L7.5 8H5.5C4.39543 8 3.5 8.89543 3.5 10V14C3.5 15.1046 4.39543 16 5.5 16H7.5L13.5 21V3Z"
            stroke-width="1.5" stroke-linecap="round" stroke-linejoin="round" />
    </symbol>
    <symbol id='hamburger' viewBox="0 0 25 25">
        <rect width="24" height="24" transform="translate(0.5 0.5)" fill-opacity="0.01" />
        <path fill-rule="evenodd" clip-rule="evenodd"
            d="M2.89961 5.30005C2.45779 5.30005 2.09961 5.65822 2.09961 6.10005C2.09961 6.54187 2.45779 6.90005 2.89961 6.90005H22.0996C22.5414 6.90005 22.8996 6.54187 22.8996 6.10005C22.8996 5.65822 22.5414 5.30005 22.0996 5.30005H2.89961ZM2.09961 12.5C2.09961 12.0582 2.45779 11.7 2.89961 11.7H22.0996C22.5414 11.7 22.8996 12.0582 22.8996 12.5C22.8996 12.9419 22.5414 13.3 22.0996 13.3H2.89961C2.45779 13.3 2.09961 12.9419 2.09961 12.5ZM2.09961 18.9C2.09961 18.4583 2.45779 18.1 2.89961 18.1H22.0996C22.5414 18.1 22.8996 18.4583 22.8996 18.9C22.8996 19.3418 22.5414 19.7 22.0996 19.7H2.89961C2.45779 19.7 2.09961 19.3418 2.09961 18.9Z"
        />
    </symbol>
    <symbol id='avatar' viewBox="0 0 20 20" fill='none'>
        <rect width="20" height="20" fill="white" fill-opacity="0.01" />
        <path fill-rule="evenodd" clip-rule="evenodd"
            d="M1.16895 9.99988C1.16895 5.12296 5.12247 1.16943 9.99939 1.16943C14.8763 1.16943 18.8299 5.12296 18.8299 9.99988C18.8299 14.8767 14.8763 18.8303 9.99939 18.8303C5.12247 18.8303 1.16895 14.8767 1.16895 9.99988ZM9.99939 2.43609C5.82203 2.43609 2.43561 5.82252 2.43561 9.99988C2.43561 11.9627 3.18325 13.7508 4.40929 15.0951C5.58725 13.255 7.6505 12.0334 9.9999 12.0334C12.349 12.0334 14.412 13.2547 15.5901 15.0944C16.8157 13.7503 17.5632 11.9623 17.5632 9.99988C17.5632 5.82252 14.1767 2.43609 9.99939 2.43609ZM14.642 15.9716C13.7115 14.3727 11.9805 13.3 9.9999 13.3C8.01903 13.3 6.28791 14.373 5.35753 15.9722C6.63895 16.9696 8.24979 17.5636 9.99939 17.5636C11.7493 17.5636 13.3604 16.9694 14.642 15.9716ZM6.86625 8.6732C6.86625 6.94271 8.26909 5.53987 9.99958 5.53987C11.7301 5.53987 13.1329 6.94271 13.1329 8.6732C13.1329 10.4037 11.7301 11.8065 9.99958 11.8065C8.26909 11.8065 6.86625 10.4037 6.86625 8.6732ZM9.99958 6.80653C8.96865 6.80653 8.13291 7.64227 8.13291 8.6732C8.13291 9.70413 8.96865 10.5399 9.99958 10.5399C11.0305 10.5399 11.8662 9.70413 11.8662 8.6732C11.8662 7.64227 11.0305 6.80653 9.99958 6.80653Z"
            fill="#1C2024" />

    </symbol>
    <symbol id='more' viewBox="0 0 11 10" fill="none">
        <rect x="0.951884" y="4.08485" width="9.06396" height="5.24535" rx="0.713367" stroke="white"
            stroke-width="0.75533" />
        <path d="M2.21191 2.0705L8.75811 2.0705" stroke="white" stroke-width="0.75533"
            stroke-linecap="round" />
        <path d="M3.30078 0.434082L7.66491 0.434082" stroke="white" stroke-width="0.75533"
            stroke-linecap="round" />
    </symbol>
    <symbol id='crown' viewBox="0 0 16 16" fill="none">
        <path
            d="M14 5.33329L12.6667 13.3333H3.33333L2 5.33329M14 5.33329L10.3333 8.33329L8 4.66663M14 5.33329C14.5523 5.33329 15 4.88558 15 4.33329C15 3.78101 14.5523 3.33329 14 3.33329C13.4477 3.33329 13 3.78101 13 4.33329C13 4.88558 13.4477 5.33329 14 5.33329ZM8 4.66663L5.66667 8.33329L2 5.33329M8 4.66663C8.55228 4.66663 9 4.21891 9 3.66663C9 3.11434 8.55228 2.66663 8 2.66663C7.44772 2.66663 7 3.11434 7 3.66663C7 4.21891 7.44772 4.66663 8 4.66663ZM2 5.33329C2.55228 5.33329 3 4.88558 3 4.33329C3 3.78101 2.55228 3.33329 2 3.33329C1.44772 3.33329 1 3.78101 1 4.33329C1 4.88558 1.44772 5.33329 2 5.33329Z"
            stroke="#9E6C00" stroke-linecap="round" stroke-linejoin="round" />


    </symbol>
    <symbol id='check' viewBox="0 0 20 24" fill="none">
        <path d="M11 8L4.00002 15L1 12" stroke="#60646C" stroke-width="2" stroke-linecap="round"
            stroke-linejoin="round" />
    </symbol>
    <symbol id='button-icon' viewBox="0 0 20 20">
        <path fill-rule="evenodd" clip-rule="evenodd"
            d="M4.86129 15.1381C4.60093 14.8777 4.60093 14.4556 4.86129 14.1953L13.7232 5.33333H7.99935C7.63117 5.33333 7.33269 5.03485 7.33269 4.66667C7.33269 4.29848 7.63117 4 7.99935 4H15.3327C15.5095 4 15.6791 4.07024 15.8042 4.19527C15.9291 4.32029 15.9994 4.48985 15.9994 4.66667V12C15.9994 12.3682 15.7008 12.6667 15.3327 12.6667C14.9646 12.6667 14.666 12.3682 14.666 12V6.27615L5.80409 15.1381C5.54374 15.3984 5.12163 15.3984 4.86129 15.1381Z"
        />
    </symbol>
    <symbol id='star' viewBox="0 0 16 16" fill="none">
        <rect width="16" height="16" fill="white" fill-opacity="0.01" />
        <path fill-rule="evenodd" clip-rule="evenodd"
            d="M7.44439 1.33518L7.42208 1.38881L5.95874 4.90711C5.91266 5.0179 5.80845 5.0936 5.68885 5.10319L1.89055 5.4077L1.83265 5.41234L1.479 5.4407L1.15816 5.46642C0.874432 5.48917 0.759385 5.84325 0.975556 6.02842L1.22001 6.23782L1.48945 6.46862L1.53356 6.50641L4.42746 8.98535C4.51859 9.06341 4.5584 9.1859 4.53054 9.30262L3.64642 13.0091L3.63293 13.0656L3.55062 13.4107L3.47593 13.7238C3.40989 14.0007 3.71109 14.2195 3.954 14.0712L4.22869 13.9034L4.53145 13.7184L4.58103 13.6881L7.8329 11.7019C7.9353 11.6394 8.0641 11.6394 8.1665 11.7019L11.4183 13.6881L11.4679 13.7184L11.7708 13.9034L12.0454 14.0712C12.2883 14.2195 12.5895 14.0007 12.5235 13.7238L12.4487 13.4107L12.3665 13.0656L12.353 13.0091L11.4689 9.30262C11.4411 9.1859 11.4808 9.06341 11.5719 8.98535L14.4658 6.50641L14.51 6.46862L14.7794 6.23782L15.0239 6.02842C15.24 5.84325 15.125 5.48917 14.8413 5.46642L14.5204 5.4407L14.1667 5.41234L14.1089 5.4077L10.3106 5.10319C10.1909 5.0936 10.0867 5.0179 10.0407 4.90711L8.57733 1.38881L8.55503 1.33518L8.41878 1.00761L8.29516 0.710416C8.18585 0.447602 7.81355 0.447602 7.70424 0.710416L7.58064 1.00761L7.44439 1.33518ZM7.99971 2.77759L6.94361 5.31674C6.74392 5.79686 6.29241 6.1249 5.77409 6.16646L3.03286 6.38621L5.12138 8.17526C5.51629 8.51354 5.68875 9.04432 5.5681 9.55011L4.93003 12.2251L7.2769 10.7916C7.72066 10.5206 8.27876 10.5206 8.72251 10.7916L11.0693 12.2251L10.4313 9.55011C10.3107 9.04432 10.4831 8.51354 10.878 8.17526L12.9665 6.38621L10.2253 6.16646C9.70699 6.1249 9.25548 5.79686 9.05579 5.31674L7.99971 2.77759Z"
            fill="#008573" />
    </symbol>
    <symbol id='document' viewBox="0 0 16 16" fill="none">
        <rect width="16" height="16" fill="white" fill-opacity="0.01" />
        <path fill-rule="evenodd" clip-rule="evenodd"
            d="M4.47948 1.06665H4.45538C4.12681 1.06664 3.84341 1.06663 3.61131 1.0887C3.36562 1.11206 3.12295 1.16386 2.89681 1.30243C2.68153 1.43435 2.50052 1.61537 2.36859 1.83065C2.23002 2.05678 2.17822 2.29946 2.15486 2.54515C2.13279 2.77723 2.1328 3.06062 2.13281 3.38919V3.41332V12.5867V12.6108C2.1328 12.9394 2.13279 13.2227 2.15486 13.4548C2.17822 13.7005 2.23002 13.9431 2.36859 14.1693C2.50052 14.3846 2.68153 14.5656 2.89681 14.6976C3.12295 14.8361 3.36562 14.8879 3.61131 14.9112C3.84341 14.9333 4.12681 14.9333 4.45538 14.9333H4.47948H11.5195H11.5436C11.8721 14.9333 12.1555 14.9333 12.3876 14.9112C12.6333 14.8879 12.876 14.8361 13.1021 14.6976C13.3175 14.5656 13.4985 14.3846 13.6304 14.1693C13.769 13.9431 13.8207 13.7005 13.8441 13.4548C13.8661 13.2227 13.8661 12.9393 13.8661 12.6108V12.5867V3.41332V3.38922C13.8661 3.06063 13.8661 2.77724 13.8441 2.54515C13.8207 2.29946 13.769 2.05678 13.6304 1.83065C13.4985 1.61537 13.3175 1.43435 13.1021 1.30243C12.876 1.16386 12.6333 1.11206 12.3876 1.0887C12.1555 1.06663 11.8721 1.06664 11.5436 1.06665H11.5195H4.47948ZM3.45415 2.21191C3.48451 2.1933 3.54467 2.16651 3.71228 2.15058C3.88782 2.13388 4.11999 2.13332 4.47948 2.13332H11.5195C11.8789 2.13332 12.1112 2.13388 12.2867 2.15058C12.4543 2.16651 12.5145 2.1933 12.5449 2.21191C12.6165 2.25589 12.6769 2.31622 12.7209 2.38798C12.7395 2.41835 12.7663 2.47851 12.7822 2.64612C12.7989 2.82166 12.7995 3.05383 12.7995 3.41332V12.5867C12.7995 12.9461 12.7989 13.1783 12.7822 13.3539C12.7663 13.5215 12.7395 13.5816 12.7209 13.612C12.6769 13.6837 12.6165 13.7441 12.5449 13.788C12.5145 13.8067 12.4543 13.8335 12.2867 13.8494C12.1112 13.8661 11.8789 13.8667 11.5195 13.8667H4.47948C4.11999 13.8667 3.88782 13.8661 3.71228 13.8494C3.54467 13.8335 3.48451 13.8067 3.45415 13.788C3.38238 13.7441 3.32205 13.6837 3.27807 13.612C3.25947 13.5816 3.23267 13.5215 3.21674 13.3539C3.20005 13.1783 3.19948 12.9461 3.19948 12.5867V3.41332C3.19948 3.05383 3.20005 2.82166 3.21674 2.64612C3.23267 2.47851 3.25947 2.41835 3.27807 2.38798C3.32205 2.31622 3.38238 2.25589 3.45415 2.21191ZM5.33281 10.6667C5.03826 10.6667 4.79948 10.9055 4.79948 11.2C4.79948 11.4945 5.03826 11.7333 5.33281 11.7333H8.53281C8.82736 11.7333 9.06615 11.4945 9.06615 11.2C9.06615 10.9055 8.82736 10.6667 8.53281 10.6667H5.33281ZM4.79948 7.99998C4.79948 7.70543 5.03826 7.46665 5.33281 7.46665H10.6661C10.9607 7.46665 11.1995 7.70543 11.1995 7.99998C11.1995 8.29453 10.9607 8.53332 10.6661 8.53332H5.33281C5.03826 8.53332 4.79948 8.29453 4.79948 7.99998ZM5.33281 4.26665C5.03826 4.26665 4.79948 4.50543 4.79948 4.79998C4.79948 5.09453 5.03826 5.33332 5.33281 5.33332H10.6661C10.9607 5.33332 11.1995 5.09453 11.1995 4.79998C11.1995 4.50543 10.9607 4.26665 10.6661 4.26665H5.33281Z"
            fill="#5753C6" />
    </symbol>
    <symbol id='check-blue' viewBox="0 0 17 17" fill="none">
        <path
            d="M14.5856 6.26193V4.29149C14.5856 3.84861 14.4096 3.42387 14.0965 3.11071C13.7833 2.79755 13.3586 2.62162 12.9157 2.62162H10.987L9.61769 1.25232C9.30482 0.94131 8.88159 0.766739 8.44043 0.766739C7.99927 0.766739 7.57604 0.94131 7.26317 1.25232L5.93563 2.62162H3.96518C3.5223 2.62162 3.09756 2.79755 2.7844 3.11071C2.47124 3.42387 2.29531 3.84861 2.29531 4.29149V6.26193L0.926016 7.58948C0.615001 7.90235 0.44043 8.32558 0.44043 8.76674C0.44043 9.2079 0.615001 9.63113 0.926016 9.944L2.29531 11.3133V13.242C2.29531 13.6849 2.47124 14.1096 2.7844 14.4228C3.09756 14.7359 3.5223 14.9119 3.96518 14.9119H5.93563L7.26317 16.2812C7.57604 16.5922 7.99927 16.7667 8.44043 16.7667C8.88159 16.7667 9.30482 16.5922 9.61769 16.2812L10.987 14.9119H12.9157C13.3586 14.9119 13.7833 14.7359 14.0965 14.4228C14.4096 14.1096 14.5856 13.6849 14.5856 13.242V11.3133L15.9548 9.944C16.2659 9.63113 16.4404 9.2079 16.4404 8.76674C16.4404 8.32558 16.2659 7.90235 15.9548 7.58948L14.5856 6.26193Z"
            fill="#3A5BC7" />
        <path
            d="M7.81458 10.8541C7.7047 10.8548 7.59577 10.8337 7.49404 10.7921C7.39232 10.7506 7.29979 10.6894 7.22178 10.612L5.93598 9.35958C5.77876 9.20236 5.69043 8.98912 5.69043 8.76678C5.69043 8.54443 5.77876 8.3312 5.93598 8.17397C6.0932 8.01675 6.30644 7.92843 6.52878 7.92843C6.75113 7.92843 6.96436 8.01675 7.12158 8.17397L7.78118 8.84192L9.69318 6.92157C9.85041 6.75549 10.0672 6.65867 10.2958 6.65241C10.5244 6.64614 10.7461 6.73095 10.9122 6.88817C11.0783 7.0454 11.1751 7.26215 11.1814 7.49076C11.1876 7.71937 11.1028 7.9411 10.9456 8.10718L8.44078 10.612C8.35884 10.6935 8.26088 10.7571 8.15309 10.7988C8.0453 10.8404 7.93003 10.8593 7.81458 10.8541Z"
            fill="white" />
    </symbol>
    <symbol id='premium' viewBox="0 0 25 25" fill="none">
        <path
            d="M0.394531 6.76674C0.394531 3.66014 2.91293 1.14174 6.01953 1.14174H18.0195C21.1261 1.14174 23.6445 3.66014 23.6445 6.76674V18.7667C23.6445 21.8733 21.1261 24.3917 18.0195 24.3917H6.01953C2.91293 24.3917 0.394531 21.8733 0.394531 18.7667V6.76674Z"
            fill="#E8E8E8" />
        <path
            d="M0.394531 6.76674C0.394531 3.66014 2.91293 1.14174 6.01953 1.14174H18.0195C21.1261 1.14174 23.6445 3.66014 23.6445 6.76674V18.7667C23.6445 21.8733 21.1261 24.3917 18.0195 24.3917H6.01953C2.91293 24.3917 0.394531 21.8733 0.394531 18.7667V6.76674Z"
            stroke="#E0E0E0" stroke-width="0.75" />
        <g clip-path="url(#clip0_4857_87170)">
            <path
                d="M16.5195 10.7667L15.5195 16.7667H8.51953L7.51953 10.7667M16.5195 10.7667L13.7695 13.0167L12.0195 10.2667M16.5195 10.7667C16.9337 10.7667 17.2695 10.431 17.2695 10.0167C17.2695 9.60253 16.9337 9.26674 16.5195 9.26674C16.1053 9.26674 15.7695 9.60253 15.7695 10.0167C15.7695 10.431 16.1053 10.7667 16.5195 10.7667ZM12.0195 10.2667L10.2695 13.0167L7.51953 10.7667M12.0195 10.2667C12.4337 10.2667 12.7695 9.93095 12.7695 9.51674C12.7695 9.10253 12.4337 8.76674 12.0195 8.76674C11.6053 8.76674 11.2695 9.10253 11.2695 9.51674C11.2695 9.93095 11.6053 10.2667 12.0195 10.2667ZM7.51953 10.7667C7.93374 10.7667 8.26953 10.431 8.26953 10.0167C8.26953 9.60253 7.93374 9.26674 7.51953 9.26674C7.10532 9.26674 6.76953 9.60253 6.76953 10.0167C6.76953 10.431 7.10532 10.7667 7.51953 10.7667Z"
                stroke="#646464" stroke-width="0.75" stroke-linecap="round" stroke-linejoin="round" />
        </g>
        <defs>
            <clipPath id="clip0_4857_87170">
                <rect width="12" height="12" fill="white" transform="translate(6.01953 6.76674)" />
            </clipPath>
        </defs>
    </symbol>
    <symbol id='in' viewBox="0 0 33 32" fill="none">

        <path
            d="M0.200195 6.4C0.200195 2.86538 3.06557 0 6.6002 0H25.8002C29.3348 0 32.2002 2.86538 32.2002 6.4V25.6C32.2002 29.1346 29.3348 32 25.8002 32H6.60019C3.06557 32 0.200195 29.1346 0.200195 25.6V6.4Z"
            fill="white" />
        <path
            d="M22.6807 21.6801V17.2265C22.6807 15.0377 22.2095 13.3657 19.6559 13.3657C18.4247 13.3657 17.6039 14.0345 17.2695 14.6729H17.2391V13.5633H14.8223V21.6801H17.3455V17.6521C17.3455 16.5881 17.5431 15.5697 18.8503 15.5697C20.1423 15.5697 20.1575 16.7705 20.1575 17.7129V21.6649H22.6807V21.6801Z"
            fill="#1C2024" />
        <path d="M10.7188 13.5626H13.2419V21.6794H10.7188V13.5626Z" fill="#1C2024" />
        <path
            d="M11.9797 9.51965C11.1741 9.51965 10.5205 10.1733 10.5205 10.9789C10.5205 11.7845 11.1741 12.4533 11.9797 12.4533C12.7853 12.4533 13.4389 11.7845 13.4389 10.9789C13.4389 10.1733 12.7853 9.51965 11.9797 9.51965Z"
            fill="#1C2024" />

    </symbol>
    <symbol id='tg' viewBox="0 0 33 32" fill="none">
        <path
            d="M0.599609 6.4C0.599609 2.86538 3.46499 0 6.99961 0H26.1996C29.7342 0 32.5996 2.86538 32.5996 6.4V25.6C32.5996 29.1346 29.7342 32 26.1996 32H6.99961C3.46499 32 0.599609 29.1346 0.599609 25.6V6.4Z"
            fill="white" />
        <path fill-rule="evenodd" clip-rule="evenodd"
            d="M9.58953 15.2216C13.455 13.641 16.0326 12.599 17.3223 12.0955C21.0046 10.6581 21.7698 10.4084 22.2685 10.4001C22.3782 10.3983 22.6235 10.4238 22.7823 10.5448C22.9165 10.647 22.9534 10.785 22.971 10.8818C22.9887 10.9787 23.0107 11.1993 22.9932 11.3717C22.7937 13.3395 21.9302 18.1147 21.4909 20.3186C21.3051 21.2512 20.9391 21.5639 20.5848 21.5945C19.8148 21.661 19.23 21.1169 18.4843 20.6581C17.3172 19.9401 16.6579 19.4932 15.5251 18.7926C14.216 17.9829 15.0647 17.5379 15.8107 16.8106C16.006 16.6203 19.3987 13.7241 19.4643 13.4614C19.4726 13.4285 19.4802 13.306 19.4027 13.2414C19.3251 13.1767 19.2107 13.1988 19.1281 13.2164C19.0111 13.2413 17.1467 14.3978 13.5351 16.6859C13.0059 17.0269 12.5266 17.1931 12.0972 17.1844C11.6237 17.1748 10.713 16.9331 10.036 16.7266C9.2056 16.4733 8.54563 16.3393 8.6031 15.9091C8.63303 15.685 8.96184 15.4558 9.58953 15.2216Z"
            fill="#1C2024" />

    </symbol>
    <symbol id='yt' viewBox="0 0 32 32" fill="none"
    >

        <path
            d="M0 6.4C0 2.86538 2.86538 0 6.4 0H25.6C29.1346 0 32 2.86538 32 6.4V25.6C32 29.1346 29.1346 32 25.6 32H6.4C2.86538 32 0 29.1346 0 25.6V6.4Z"
            fill="white" />
        <path
            d="M22.8869 12.0653C22.7116 11.4142 22.1983 10.9008 21.5472 10.7256C20.3578 10.4 15.6 10.4 15.6 10.4C15.6 10.4 10.8422 10.4 9.65271 10.713C9.01416 10.8883 8.4883 11.4142 8.31301 12.0653C8 13.2547 8 15.7213 8 15.7213C8 15.7213 8 18.2003 8.31301 19.3772C8.4883 20.0283 9.00164 20.5417 9.65271 20.7169C10.8547 21.0425 15.6 21.0425 15.6 21.0425C15.6 21.0425 20.3578 21.0425 21.5472 20.7295C22.1983 20.5542 22.7116 20.0408 22.8869 19.3898C23.1999 18.2003 23.1999 15.7338 23.1999 15.7338C23.1999 15.7338 23.2125 13.2547 22.8869 12.0653Z"
            fill="#1C2024" />
        <path d="M14.084 17.9997L18.0405 15.721L14.084 13.4423V17.9997Z" fill="white" />

    </symbol>
    <symbol id='pencil' viewBox="0 0 18 18" fill="none">
        <rect width="17.1585" height="17.1585" transform="translate(0.368164 0.466492)" fill="white"
            fill-opacity="0.01" />
        <path fill-rule="evenodd" clip-rule="evenodd"
            d="M13.9278 1.77794C13.7044 1.55457 13.3422 1.55457 13.1189 1.77794L4.61753 10.2793C4.51462 10.3822 4.43231 10.5038 4.37498 10.6376L2.70251 14.5399C2.61038 14.755 2.65842 15.0043 2.82379 15.1698C2.98916 15.335 3.23856 15.3831 3.45352 15.291L7.35594 13.6185C7.48969 13.5612 7.61129 13.4788 7.71419 13.376L16.2156 4.87459C16.4389 4.65123 16.4389 4.2891 16.2156 4.06574L13.9278 1.77794ZM5.42639 11.0882L13.5233 2.99123L15.0023 4.47016L6.90533 12.5672L5.19484 13.3002L4.69332 12.7987L5.42639 11.0882Z"
            fill="#1F2D5C" />
    </symbol>
    <symbol id='image-icon' viewBox="0 0 23 22" fill="none">
        <rect width="21.6386" height="21.6386" transform="translate(0.876953 0.163574)" fill="white"
            fill-opacity="0.01" />
        <path fill-rule="evenodd" clip-rule="evenodd"
            d="M3.76172 3.77005C3.76172 3.3717 4.08465 3.04877 4.48301 3.04877H8.81073C9.20908 3.04877 9.53201 3.3717 9.53201 3.77005C9.53201 4.16841 9.20908 4.49134 8.81073 4.49134H5.20429V8.09778C5.20429 8.49613 4.88136 8.81906 4.48301 8.81906C4.08465 8.81906 3.76172 8.49613 3.76172 8.09778V3.77005ZM13.8597 3.77005C13.8597 3.3717 14.1827 3.04877 14.581 3.04877H18.9087C19.307 3.04877 19.63 3.3717 19.63 3.77005V8.09778C19.63 8.49613 19.307 8.81906 18.9087 8.81906C18.5104 8.81906 18.1875 8.49613 18.1875 8.09778V4.49134H14.581C14.1827 4.49134 13.8597 4.16841 13.8597 3.77005ZM4.48301 13.1468C4.88136 13.1468 5.20429 13.4697 5.20429 13.8681V17.4745H8.81073C9.20908 17.4745 9.53201 17.7975 9.53201 18.1958C9.53201 18.5941 9.20908 18.9171 8.81073 18.9171H4.48301C4.08465 18.9171 3.76172 18.5941 3.76172 18.1958V13.8681C3.76172 13.4697 4.08465 13.1468 4.48301 13.1468ZM18.9087 13.1468C19.307 13.1468 19.63 13.4697 19.63 13.8681V18.1958C19.63 18.5941 19.307 18.9171 18.9087 18.9171H14.581C14.1827 18.9171 13.8597 18.5941 13.8597 18.1958C13.8597 17.7975 14.1827 17.4745 14.581 17.4745H18.1875V13.8681C18.1875 13.4697 18.5104 13.1468 18.9087 13.1468Z"
            fill="white" />
    </symbol>
    <symbol id='search-icon' width="22" height="24" viewBox="0 0 22 24" fill="none">
        <path fill-rule="evenodd" clip-rule="evenodd"
            d="M12.2756 2.25H6.1218C4.82949 2.25 3.59051 2.76282 2.67667 3.67665C1.76282 4.59049 1.25 5.82945 1.25 7.12174V17.378C1.25 18.6703 1.76282 19.9093 2.67667 20.8231C3.59051 21.737 4.82949 22.2498 6.1218 22.2498H16.3782C17.6705 22.2498 18.9095 21.737 19.8233 20.8231C20.7372 19.9093 21.25 18.6703 21.25 17.378C21.25 14.7145 21.25 11.7371 21.25 11.7371C21.25 11.3125 20.9054 10.9679 20.4808 10.9679C20.0562 10.9679 19.7115 11.3125 19.7115 11.7371V17.378C19.7115 18.2621 19.3608 19.1103 18.7351 19.7349C18.1105 20.3606 17.2623 20.7113 16.3782 20.7113H6.1218C5.23769 20.7113 4.38949 20.3606 3.76487 19.7349C3.13923 19.1103 2.78846 18.2621 2.78846 17.378C2.78846 14.3247 2.78846 10.175 2.78846 7.12174C2.78846 6.23765 3.13923 5.38946 3.76487 4.76485C4.38949 4.13921 5.23769 3.78845 6.1218 3.78845H12.2756C12.7003 3.78845 13.0449 3.44383 13.0449 3.01922C13.0449 2.59461 12.7003 2.25 12.2756 2.25Z"
            fill="#1C2024" />
        <path fill-rule="evenodd" clip-rule="evenodd"
            d="M20.9627 15.7513C20.9627 15.7513 18.8663 14.0754 17.3545 12.8662C16.1832 11.9277 14.4817 12.0723 13.4848 13.1944C11.173 15.7943 6.57296 20.9697 6.57296 20.9697C6.29091 21.2866 6.31962 21.7738 6.63757 22.0558C6.9545 22.3379 7.44168 22.3092 7.72373 21.9912C7.72373 21.9912 12.3227 16.8169 14.6345 14.2159C15.0878 13.7062 15.8612 13.6405 16.3935 14.0672L20.0007 16.9533C20.333 17.2179 20.8171 17.1646 21.0827 16.8333C21.3473 16.501 21.294 16.0169 20.9627 15.7513Z"
            fill="#1C2024" />
        <path fill-rule="evenodd" clip-rule="evenodd"
            d="M12.2805 14.7576C12.2805 14.7576 9.55534 12.2807 7.8938 10.7699C6.89278 9.86018 5.38611 9.78839 4.30406 10.6007C3.10919 11.4961 1.55739 12.6602 1.55739 12.6602C1.21791 12.9145 1.14919 13.3976 1.40355 13.7371C1.65791 14.0765 2.14098 14.1453 2.48047 13.8909C2.48047 13.8909 4.03226 12.7268 5.22714 11.8314C5.71842 11.4622 6.40355 11.494 6.85893 11.9084L11.2446 15.896C11.5594 16.1811 12.0466 16.1586 12.3318 15.8447C12.6169 15.5299 12.5943 15.0427 12.2805 14.7576Z"
            fill="#1C2024" />
        <path
            d="M8.68495 8.14733C9.53461 8.14733 10.2234 7.45854 10.2234 6.60888C10.2234 5.75922 9.53461 5.07043 8.68495 5.07043C7.83528 5.07043 7.14648 5.75922 7.14648 6.60888C7.14648 7.45854 7.83528 8.14733 8.68495 8.14733Z"
            fill="#1C2024" />
        <path fill-rule="evenodd" clip-rule="evenodd"
            d="M16.8919 2.25C15.0519 2.25 13.5586 3.74332 13.5586 5.5833C13.5586 7.42328 15.0519 8.9166 16.8919 8.9166C18.7319 8.9166 20.2253 7.42328 20.2253 5.5833C20.2253 3.74332 18.7319 2.25 16.8919 2.25ZM16.8919 3.78845C17.8827 3.78845 18.6868 4.59254 18.6868 5.5833C18.6868 6.57406 17.8827 7.37815 16.8919 7.37815C15.9012 7.37815 15.0971 6.57406 15.0971 5.5833C15.0971 4.59254 15.9012 3.78845 16.8919 3.78845Z"
            fill="#1C2024" />
        <path fill-rule="evenodd" clip-rule="evenodd"
            d="M21.0249 8.62967L19.4864 7.09123C19.1869 6.79072 18.6987 6.79072 18.3992 7.09123C18.0987 7.39071 18.0987 7.87891 18.3992 8.1784L19.9377 9.71684C20.2372 10.0174 20.7254 10.0174 21.0249 9.71684C21.3254 9.41736 21.3254 8.92916 21.0249 8.62967Z"
            fill="#1C2024" />
    </symbol>
    <symbol id='close-2' viewBox="0 0 12 12" fill="none">
        <rect width="12" height="12" fill="white" fill-opacity="0.01" />
        <path fill-rule="evenodd" clip-rule="evenodd"
            d="M9.42518 3.22521C9.60486 3.04557 9.60486 2.75431 9.42518 2.57467C9.24558 2.39503 8.9543 2.39503 8.7747 2.57467L5.99994 5.34941L3.22522 2.57467C3.04557 2.39503 2.75431 2.39503 2.57467 2.57467C2.39503 2.75431 2.39503 3.04557 2.57467 3.22521L5.34941 5.99994L2.57467 8.77467C2.39503 8.95435 2.39503 9.24555 2.57467 9.42523C2.75431 9.60483 3.04557 9.60483 3.22522 9.42523L5.99994 6.65048L8.7747 9.42523C8.9543 9.60483 9.24558 9.60483 9.42518 9.42523C9.60486 9.24555 9.60486 8.95435 9.42518 8.77467L6.65048 5.99994L9.42518 3.22521Z"
            fill="#1F2D5C" />
    </symbol>
    <symbol id='bookmark' viewBox="0 0 16 16">
        <rect width="16" height="16" fill="white" fill-opacity="0.01" />
        <path fill-rule="evenodd" clip-rule="evenodd"
            d="M3.2002 2.66663C3.2002 2.37208 3.43898 2.1333 3.73353 2.1333H12.2669C12.5614 2.1333 12.8002 2.37208 12.8002 2.66663V14.4C12.8002 14.5939 12.695 14.7724 12.5254 14.8664C12.3558 14.9604 12.1486 14.955 11.9842 14.8522L8.0002 12.3622L4.0162 14.8522C3.85179 14.955 3.64456 14.9604 3.47499 14.8664C3.30541 14.7724 3.2002 14.5939 3.2002 14.4V2.66663ZM4.26686 3.19997V13.4377L7.43486 11.4577C7.78075 11.2416 8.21964 11.2416 8.56553 11.4577L11.7335 13.4377V3.19997H4.26686Z"
            fill="white" />
    </symbol>
    <symbol id='heart' viewBox="0 0 16 16">
        <rect width="16" height="16" fill="white" fill-opacity="0.01" />
        <path fill-rule="evenodd" clip-rule="evenodd"
            d="M5.21992 2.50929C3.72497 2.50929 2.50954 3.72648 2.50954 5.23232C2.50954 6.80706 3.42374 8.44457 4.66428 9.95755C5.75378 11.2864 7.03451 12.4482 8.00025 13.3096C8.96599 12.4482 10.2467 11.2864 11.3362 9.95755C12.5768 8.44457 13.491 6.80706 13.491 5.23232C13.491 3.72648 12.2755 2.50929 10.7806 2.50929C9.88885 2.50929 9.40709 2.81943 9.10924 3.15564C8.83091 3.46979 8.68954 3.82469 8.56024 4.14924C8.53773 4.20574 8.51559 4.26133 8.49314 4.31562C8.4107 4.51512 8.21612 4.64525 8.00025 4.64525C7.78439 4.64525 7.5898 4.51513 7.50735 4.31563C7.48491 4.26133 7.46275 4.20573 7.44025 4.14921C7.31095 3.82466 7.16957 3.46978 6.89125 3.15564C6.59339 2.81943 6.11164 2.50929 5.21992 2.50929ZM1.44287 5.23232C1.44287 3.14129 3.13196 1.44263 5.21992 1.44263C6.40919 1.44263 7.18427 1.87784 7.68965 2.4483C7.80889 2.58288 7.91154 2.72406 8.00025 2.86446C8.08895 2.72406 8.1916 2.58288 8.31083 2.4483C8.81623 1.87784 9.59131 1.44263 10.7806 1.44263C12.8685 1.44263 14.5577 3.14129 14.5577 5.23232C14.5577 7.18975 13.4416 9.07207 12.1611 10.6339C10.9481 12.1133 9.51696 13.3875 8.53997 14.2575C8.47644 14.314 8.41483 14.3689 8.35533 14.422C8.15301 14.6025 7.84748 14.6025 7.64516 14.422C7.58567 14.3689 7.52406 14.314 7.46052 14.2575C6.48353 13.3875 5.0524 12.1133 3.83944 10.6339C2.55886 9.07207 1.44287 7.18975 1.44287 5.23232Z"
            fill="white" />
    </symbol>
    <symbol id='share-1' viewBox="0 0 16 16">
        <rect width="16" height="16" transform="translate(16 16) rotate(-180)" fill="white"
            fill-opacity="0.01" />
        <path fill-rule="evenodd" clip-rule="evenodd"
            d="M10.6664 8.00002C10.6664 7.11637 11.3828 6.40002 12.2664 6.40002C13.1501 6.40002 13.8664 7.11637 13.8664 8.00002C13.8664 8.88367 13.1501 9.60002 12.2664 9.60002C11.3828 9.60002 10.6664 8.88367 10.6664 8.00002ZM9.90577 6.75857C10.3524 5.91111 11.2419 5.33338 12.2664 5.33338C13.7392 5.33338 14.9331 6.52726 14.9331 8.00002C14.9331 9.47278 13.7392 10.6667 12.2664 10.6667C11.2419 10.6667 10.3524 10.0889 9.90577 9.24148L6.28858 11.5022C6.36091 11.7444 6.39977 12.001 6.39977 12.2667C6.39977 13.7394 5.20585 14.9333 3.7331 14.9333C2.26036 14.9333 1.06644 13.7394 1.06644 12.2667C1.06644 10.7939 2.26036 9.60002 3.73311 9.60002C4.59551 9.60002 5.36229 10.0094 5.84973 10.6444L9.61545 8.29084C9.60508 8.19533 9.59977 8.0983 9.59977 8.00002C9.59977 7.90174 9.60508 7.80472 9.61545 7.7092L5.84972 5.35562C5.36228 5.99064 4.59551 6.40002 3.73311 6.40002C2.26036 6.40002 1.06644 5.20613 1.06644 3.73338C1.06644 2.26063 2.26036 1.06671 3.73311 1.06671C5.20585 1.06671 6.39977 2.26063 6.39977 3.73338C6.39977 3.99909 6.36091 4.25562 6.28857 4.49786L9.90577 6.75857ZM3.73311 10.6667C2.84948 10.6667 2.1331 11.383 2.1331 12.2667C2.1331 13.1503 2.84948 13.8667 3.7331 13.8667C4.61673 13.8667 5.33311 13.1503 5.33311 12.2667C5.33311 11.383 4.61673 10.6667 3.73311 10.6667ZM2.13311 3.73338C2.13311 2.84965 2.84948 2.13338 3.73311 2.13338C4.61673 2.13338 5.33311 2.84965 5.33311 3.73338C5.33311 4.61701 4.61673 5.33338 3.73311 5.33338C2.84948 5.33338 2.13311 4.61701 2.13311 3.73338Z"
            fill="white" />
    </symbol>
    <symbol id='arrow-right' viewBox="0 0 27 26" fill="none">
        <rect width="26" height="26" transform="translate(0.5 26) rotate(-90)" fill="white"
            fill-opacity="0.01" />
        <path fill-rule="evenodd" clip-rule="evenodd"
            d="M11.1738 20.5656C10.8246 20.2382 10.8069 19.6898 11.1343 19.3406L17.0786 13L11.1343 6.65945C10.8069 6.31019 10.8246 5.76176 11.1738 5.43433C11.523 5.10708 12.0715 5.12476 12.3988 5.47385L18.8989 12.4072C19.2114 12.7406 19.2114 13.2594 18.8989 13.5927L12.3988 20.5261C12.0715 20.8753 11.523 20.8929 11.1738 20.5656Z"
            fill="#1C2024" />
    </symbol>
    <symbol id='arrow-left' viewBox="0 0 27 26" fill="none">
        <rect width="26" height="26" transform="translate(26.5) rotate(90)" fill="white"
            fill-opacity="0.01" />
        <path fill-rule="evenodd" clip-rule="evenodd"
            d="M15.8262 5.43438C16.1754 5.76176 16.1931 6.31022 15.8657 6.6594L9.92138 13L15.8657 19.3405C16.1931 19.6898 16.1754 20.2382 15.8262 20.5656C15.477 20.8929 14.9285 20.8752 14.6012 20.5261L8.10111 13.5927C7.78859 13.2594 7.78859 12.7406 8.10111 12.4072L14.6012 5.4739C14.9285 5.12471 15.477 5.10703 15.8262 5.43438Z"
            fill="#1C2024" />
    </symbol>
    <symbol id='setting' viewBox="0 0 24 24" fill="none">
        <path
            d="M4 5L10 5M10 5C10 6.10457 10.8954 7 12 7C13.1046 7 14 6.10457 14 5M10 5C10 3.89543 10.8954 3 12 3C13.1046 3 14 3.89543 14 5M14 5L20 5M4 12H16M16 12C16 13.1046 16.8954 14 18 14C19.1046 14 20 13.1046 20 12C20 10.8954 19.1046 10 18 10C16.8954 10 16 10.8954 16 12ZM8 19H20M8 19C8 17.8954 7.10457 17 6 17C4.89543 17 4 17.8954 4 19C4 20.1046 4.89543 21 6 21C7.10457 21 8 20.1046 8 19Z"
            stroke-width="1.5" stroke-linecap="round" />
    </symbol>


</svg>

    