<svg width="233" height="324" viewBox="0 0 233 324" fill="none" xmlns="http://www.w3.org/2000/svg">
<rect x="2" y="2" width="229" height="320" rx="14" fill="white"/>
<rect x="2" y="2" width="229" height="320" rx="14" stroke="#F0F0F3" stroke-width="4"/>
<rect x="16" y="115" width="157" height="20" rx="4" fill="#F0F0F3"/>
<rect x="16" y="142" width="171" height="20" rx="4" fill="#F0F0F3"/>
<rect x="16" y="169.151" width="200" height="20" rx="4" fill="#F0F0F3"/>
<rect x="16" y="16" width="64" height="16" rx="4" fill="#F9F9FB"/>
<rect x="16" y="39" width="43" height="16" rx="4" fill="#F9F9FB"/>
<rect x="16" y="62" width="22" height="16" rx="4" fill="#F9F9FB"/>
<path d="M186 16.625H206C211.178 16.625 215.375 20.8223 215.375 26V46C215.375 51.1777 211.178 55.375 206 55.375H186C180.822 55.375 176.625 51.1777 176.625 46V26C176.625 20.8223 180.822 16.625 186 16.625Z" fill="#FFEE9C"/>
<path d="M186 16.625H206C211.178 16.625 215.375 20.8223 215.375 26V46C215.375 51.1777 211.178 55.375 206 55.375H186C180.822 55.375 176.625 51.1777 176.625 46V26C176.625 20.8223 180.822 16.625 186 16.625Z" stroke="#FBE577" stroke-width="1.25"/>
<path d="M203.5 32.6667L201.833 42.6667H190.167L188.5 32.6667M203.5 32.6667L198.917 36.4167L196 31.8334M203.5 32.6667C204.19 32.6667 204.75 32.1071 204.75 31.4167C204.75 30.7264 204.19 30.1667 203.5 30.1667C202.81 30.1667 202.25 30.7264 202.25 31.4167C202.25 32.1071 202.81 32.6667 203.5 32.6667ZM196 31.8334L193.083 36.4167L188.5 32.6667M196 31.8334C196.69 31.8334 197.25 31.2737 197.25 30.5834C197.25 29.893 196.69 29.3334 196 29.3334C195.31 29.3334 194.75 29.893 194.75 30.5834C194.75 31.2737 195.31 31.8334 196 31.8334ZM188.5 32.6667C189.19 32.6667 189.75 32.1071 189.75 31.4167C189.75 30.7264 189.19 30.1667 188.5 30.1667C187.81 30.1667 187.25 30.7264 187.25 31.4167C187.25 32.1071 187.81 32.6667 188.5 32.6667Z" stroke="#AB6400" stroke-width="1.25" stroke-linecap="round" stroke-linejoin="round"/>
<path d="M196.998 255.968C194.769 256.768 192.518 257.046 190.182 256.83L189.856 255.906C189.612 255.214 188.454 255.066 188.286 255.906C188.232 256.173 187.681 258.523 186.781 257.366C186.253 256.687 186.548 255.625 186.641 254.854C186.742 254.014 186.73 252.947 186.151 252.258C185.485 251.464 183.65 250.657 182.798 251.704C181.474 253.333 183.468 255.537 181.898 257.302C180.977 258.337 179.326 257.675 178.477 256.829C179.601 254.96 179.359 252.847 178.374 250.96C178.097 250.429 177.184 250.402 176.915 250.96C176.112 252.626 175.672 254.873 176.374 256.647C175.624 257.163 174.601 257.276 173.806 256.81C175.25 254.628 175.807 251.847 175.023 248.998C174.808 248.214 173.828 248.193 173.4 248.788C172.08 250.624 170.845 252.546 170.991 254.885C171.036 255.606 171.246 256.268 171.587 256.842C170.303 258.279 168.484 259.252 166.379 259.454C166.345 259.335 166.315 259.214 166.28 259.096C166.14 258.611 165.978 258.133 165.811 257.656C165.81 256.532 165.829 255.41 165.878 254.289C166.054 254.012 166.256 253.735 166.463 253.44C167.42 252.072 168.237 250.614 168.98 249.123C171.939 243.181 173.073 236.398 172.358 229.828C172.275 229.064 171.502 228.747 170.896 229.229C169.098 230.66 168.277 232.725 167.595 234.842C166.701 237.617 166.02 240.458 165.465 243.316C164.805 246.719 164.404 250.168 164.233 253.628C164.165 253.725 164.098 253.822 164.028 253.919C163.062 255.259 163.616 256.725 164.139 258.123C164.145 258.85 164.16 259.578 164.185 260.304C164.201 260.774 164.553 261.099 165.018 261.128C165.03 261.128 165.042 261.128 165.055 261.129C165.433 262.666 165.7 264.231 165.876 265.8C166.38 270.301 165.926 274.861 164.692 279.211C163.022 278.437 162.795 269.739 162.749 268.568C162.629 265.515 162.855 262.512 163.09 259.487C163.334 259.343 163.503 259.068 163.436 258.706L163.202 257.445C163.061 256.687 161.795 256.684 161.657 257.445C160.993 261.084 160.936 264.88 161.042 268.568C161.097 270.497 161.265 272.422 161.489 274.339C161.671 275.893 161.778 277.56 162.397 279.012C163.118 280.705 165.612 282.128 166.344 279.716C167.356 276.382 167.782 272.874 167.801 269.401C167.815 266.605 167.445 263.805 166.799 261.08C169.169 260.811 171.246 259.718 172.763 258.119C173.096 258.358 173.468 258.555 173.873 258.702C174.947 259.093 176.293 258.74 177.302 258.049C177.481 258.224 177.674 258.391 177.897 258.54C179.931 259.894 183.16 259.698 183.987 257.021C184.401 255.683 184.267 254.356 184.022 252.998C184.289 252.855 184.536 252.914 184.765 253.174C185.26 253.562 184.983 254.908 184.922 255.446C184.833 256.224 184.774 257.102 185.172 257.818C185.697 258.766 186.475 259.477 187.62 259.418C188.311 259.382 188.815 258.884 189.174 258.257C189.29 258.322 189.426 258.362 189.582 258.382C192.266 258.73 194.889 258.445 197.435 257.54C198.431 257.188 198 255.609 196.998 255.968ZM166.968 244.37C167.404 241.911 167.994 239.481 168.675 237.078C169.19 235.261 169.701 233.34 170.801 231.806C171.136 238.498 169.459 244.922 166.126 250.681C166.319 248.57 166.597 246.465 166.968 244.37ZM173.588 251.683C173.574 252.976 173.248 254.203 172.673 255.285C172.404 254.162 172.92 252.844 173.588 251.683Z" fill="#3A5BC7"/>
<path d="M38.1291 249.478C38.7386 249.478 39.2382 249.975 39.2382 250.582V254.253H44.434V250.582C44.434 249.975 44.9336 249.478 45.5631 249.478C46.1926 249.478 46.6722 249.975 46.6722 250.582V260.708C46.6722 260.887 46.5223 261.036 46.3424 261.036H44.7637C44.5839 261.036 44.434 260.887 44.434 260.708V256.242H39.2382V260.698C39.2382 260.877 39.0883 261.026 38.9085 261.026H37.3297C37.1499 261.026 37 260.877 37 260.698V250.582C37 249.975 37.4996 249.478 38.1291 249.478Z" fill="#1C2024"/>
<path d="M49.64 248.931C50.3494 248.931 50.929 249.508 50.929 250.214C50.929 250.92 50.3494 251.497 49.64 251.497C48.9306 251.497 48.3311 250.92 48.3311 250.214C48.3311 249.508 48.9106 248.931 49.64 248.931ZM49.64 252.452C50.2195 252.452 50.6991 252.93 50.6991 253.506V260.718C50.6991 260.887 50.5493 261.036 50.3794 261.036H48.8706C48.7008 261.036 48.5509 260.887 48.5509 260.718V253.506C48.5509 252.93 49.0305 252.452 49.63 252.452H49.64Z" fill="#1C2024"/>
<path d="M62.3945 249.483H66.2614C68.7793 249.483 70.0283 251.313 70.0283 253.133C70.0283 254.436 69.3988 255.739 68.1199 256.386L69.8784 259.419C70.1982 259.947 70.0083 260.623 69.4788 260.941C68.9292 261.26 68.2498 261.071 67.94 260.543L65.7817 256.794H63.5136V260.703C63.5136 260.882 63.3637 261.031 63.1838 261.031H61.6051C61.4253 261.031 61.2754 260.882 61.2754 260.703V250.587C61.2754 249.98 61.775 249.483 62.4045 249.483H62.3945ZM66.1814 254.685C67.2805 254.685 67.8101 253.909 67.8101 253.133C67.8101 252.357 67.2805 251.601 66.1814 251.601H63.5136V254.685H66.1814Z" fill="#1C2024"/>
<path d="M75.5042 252.437C77.8722 252.437 79.5709 254.138 79.5709 256.535C79.5709 257.38 78.9713 257.589 78.5417 257.589H73.4458C73.7256 258.644 74.5749 259.34 75.664 259.34C76.2935 259.34 76.8131 259.24 77.3027 258.942C77.5725 258.793 77.8323 258.723 78.0521 258.723C78.6116 258.723 79.0013 259.151 79.0013 259.628C79.0013 259.976 78.8015 260.335 78.3718 260.603C77.5925 261.081 76.6432 261.25 75.664 261.25C73.0961 261.25 71.2676 259.419 71.2676 256.843C71.2676 254.267 73.0262 252.437 75.4942 252.437H75.5042ZM77.4426 256.087C77.2727 255.043 76.5133 254.357 75.5042 254.357C74.495 254.357 73.6956 255.033 73.4458 256.087H77.4426Z" fill="#1C2024"/>
<path d="M85.9954 252.994C86.4151 253.262 86.5949 253.62 86.5949 253.969C86.5949 254.446 86.2252 254.874 85.6956 254.874C85.4758 254.874 85.236 254.794 84.9862 254.655C84.5566 254.436 84.1369 254.337 83.6573 254.337C83.1777 254.337 82.8779 254.585 82.8779 254.963C82.8779 256.167 86.9746 255.57 86.9746 258.584C86.9746 260.255 85.7156 261.289 83.7372 261.289C82.788 261.289 81.8987 261.16 81.1793 260.732C80.7496 260.464 80.5498 260.106 80.5498 259.758C80.5498 259.28 80.9295 258.852 81.499 258.852C81.7189 258.852 81.9786 258.932 82.2484 259.071C82.728 259.32 83.1977 259.39 83.7372 259.39C84.4866 259.39 84.8663 259.012 84.8663 258.644C84.8663 257.321 80.7696 257.917 80.7696 255.023C80.7696 253.441 81.8687 252.427 83.6573 252.427C84.5166 252.427 85.3359 252.576 85.9954 252.984V252.994Z" fill="#1C2024"/>
<rect x="51.8828" y="256.917" width="4.05783" height="4.05784" rx="0.591132" fill="#1C2024" fill-opacity="0.3"/>
<rect x="53.9648" y="254.781" width="4.16462" height="4.16462" rx="0.591132" fill="#1C2024" fill-opacity="0.6"/>
<rect x="56.1006" y="252.699" width="4.05783" height="4.05784" rx="0.591132" fill="#1C2024"/>
</svg>
