<svg width="233" height="324" viewBox="0 0 233 324" fill="none" xmlns="http://www.w3.org/2000/svg">
<rect x="2" y="2" width="229" height="320" rx="14" fill="white"/>
<rect x="2" y="2" width="229" height="320" rx="14" stroke="#F0F0F3" stroke-width="4"/>
<rect x="16" y="115" width="157" height="20" rx="4" fill="#F0F0F3"/>
<rect x="16" y="142" width="171" height="20" rx="4" fill="#F0F0F3"/>
<rect x="16" y="169.151" width="200" height="20" rx="4" fill="#F0F0F3"/>
<rect x="16" y="16" width="64" height="16" rx="4" fill="#F9F9FB"/>
<rect x="16" y="39" width="43" height="16" rx="4" fill="#F9F9FB"/>
<rect x="16" y="62" width="22" height="16" rx="4" fill="#F9F9FB"/>
<path d="M198 16.375H210C213.107 16.375 215.625 18.8934 215.625 22V34C215.625 37.1066 213.107 39.625 210 39.625H198C194.893 39.625 192.375 37.1066 192.375 34V22C192.375 18.8934 194.893 16.375 198 16.375Z" fill="#FFEE9C"/>
<path d="M198 16.375H210C213.107 16.375 215.625 18.8934 215.625 22V34C215.625 37.1066 213.107 39.625 210 39.625H198C194.893 39.625 192.375 37.1066 192.375 34V22C192.375 18.8934 194.893 16.375 198 16.375Z" stroke="#FBE577" stroke-width="0.75"/>
<path d="M208.5 26L207.5 32H200.5L199.5 26M208.5 26L205.75 28.25L204 25.5M208.5 26C208.914 26 209.25 25.6642 209.25 25.25C209.25 24.8358 208.914 24.5 208.5 24.5C208.086 24.5 207.75 24.8358 207.75 25.25C207.75 25.6642 208.086 26 208.5 26ZM204 25.5L202.25 28.25L199.5 26M204 25.5C204.414 25.5 204.75 25.1642 204.75 24.75C204.75 24.3358 204.414 24 204 24C203.586 24 203.25 24.3358 203.25 24.75C203.25 25.1642 203.586 25.5 204 25.5ZM199.5 26C199.914 26 200.25 25.6642 200.25 25.25C200.25 24.8358 199.914 24.5 199.5 24.5C199.086 24.5 198.75 24.8358 198.75 25.25C198.75 25.6642 199.086 26 199.5 26Z" stroke="#AB6400" stroke-width="0.75" stroke-linecap="round" stroke-linejoin="round"/>
<path d="M204.998 255.968C202.769 256.768 200.518 257.046 198.182 256.83L197.856 255.906C197.612 255.214 196.454 255.066 196.286 255.906C196.232 256.173 195.681 258.523 194.781 257.366C194.253 256.687 194.548 255.625 194.641 254.854C194.742 254.014 194.73 252.947 194.151 252.258C193.485 251.464 191.65 250.657 190.798 251.704C189.474 253.333 191.468 255.537 189.898 257.302C188.977 258.337 187.326 257.675 186.477 256.829C187.601 254.96 187.359 252.847 186.374 250.96C186.097 250.429 185.184 250.402 184.915 250.96C184.112 252.626 183.672 254.873 184.374 256.647C183.624 257.163 182.601 257.276 181.806 256.81C183.25 254.628 183.807 251.847 183.023 248.998C182.808 248.214 181.828 248.193 181.4 248.788C180.08 250.624 178.845 252.546 178.991 254.885C179.036 255.606 179.246 256.268 179.587 256.842C178.303 258.279 176.484 259.252 174.379 259.454C174.345 259.335 174.315 259.214 174.28 259.096C174.14 258.611 173.978 258.133 173.811 257.656C173.81 256.532 173.829 255.41 173.878 254.289C174.054 254.012 174.256 253.735 174.463 253.44C175.42 252.072 176.237 250.614 176.98 249.123C179.939 243.181 181.073 236.398 180.358 229.828C180.275 229.064 179.502 228.747 178.896 229.229C177.098 230.66 176.277 232.725 175.595 234.842C174.701 237.617 174.02 240.458 173.465 243.316C172.805 246.719 172.404 250.168 172.233 253.628C172.165 253.725 172.098 253.822 172.028 253.919C171.062 255.259 171.616 256.725 172.139 258.123C172.145 258.85 172.16 259.578 172.185 260.304C172.201 260.774 172.553 261.099 173.018 261.128C173.03 261.128 173.042 261.128 173.055 261.129C173.433 262.666 173.7 264.231 173.876 265.8C174.38 270.301 173.926 274.861 172.692 279.211C171.022 278.437 170.795 269.739 170.749 268.568C170.629 265.515 170.855 262.512 171.09 259.487C171.334 259.343 171.503 259.068 171.436 258.706L171.202 257.445C171.061 256.687 169.795 256.684 169.657 257.445C168.993 261.084 168.936 264.88 169.042 268.568C169.097 270.497 169.265 272.422 169.489 274.339C169.671 275.893 169.778 277.56 170.397 279.012C171.118 280.705 173.612 282.128 174.344 279.716C175.356 276.382 175.782 272.874 175.801 269.401C175.815 266.605 175.445 263.805 174.799 261.08C177.169 260.811 179.246 259.718 180.763 258.119C181.096 258.358 181.468 258.555 181.873 258.702C182.947 259.093 184.293 258.74 185.302 258.049C185.481 258.224 185.674 258.391 185.897 258.54C187.931 259.894 191.16 259.698 191.987 257.021C192.401 255.683 192.267 254.356 192.022 252.998C192.289 252.855 192.536 252.914 192.765 253.174C193.26 253.562 192.983 254.908 192.922 255.446C192.833 256.224 192.774 257.102 193.172 257.818C193.697 258.766 194.475 259.477 195.62 259.418C196.311 259.382 196.815 258.884 197.174 258.257C197.29 258.322 197.426 258.362 197.582 258.382C200.266 258.73 202.889 258.445 205.435 257.54C206.431 257.188 206 255.609 204.998 255.968ZM174.968 244.37C175.404 241.911 175.994 239.481 176.675 237.078C177.19 235.261 177.701 233.34 178.801 231.806C179.136 238.498 177.459 244.922 174.126 250.681C174.319 248.57 174.597 246.465 174.968 244.37ZM181.588 251.683C181.574 252.976 181.248 254.203 180.673 255.285C180.404 254.162 180.92 252.844 181.588 251.683Z" fill="#3A5BC7"/>
</svg>
