<svg width="91" height="23" viewBox="0 0 91 23" fill="none" xmlns="http://www.w3.org/2000/svg">
<path d="M2.04647 0.991577C3.1512 0.991577 4.05672 1.89299 4.05672 2.99271V9.64513H13.4741V2.99271C13.4741 1.89299 14.3796 0.991577 15.5206 0.991577C16.6615 0.991577 17.5308 1.89299 17.5308 2.99271V21.3455C17.5308 21.67 17.2592 21.9404 16.9332 21.9404H14.0717C13.7458 21.9404 13.4741 21.67 13.4741 21.3455V13.2508H4.05672V21.3274C4.05672 21.6519 3.78506 21.9224 3.45908 21.9224H0.597642C0.271655 21.9224 0 21.6519 0 21.3274V2.99271C0 1.89299 0.905518 0.991577 2.04647 0.991577Z" fill="#1C2024"/>
<path d="M22.9091 0C24.1949 0 25.2453 1.04564 25.2453 2.32564C25.2453 3.60565 24.1949 4.65129 22.9091 4.65129C21.6232 4.65129 20.5366 3.60565 20.5366 2.32564C20.5366 1.04564 21.587 0 22.9091 0ZM22.9091 6.382C23.9595 6.382 24.8288 7.24735 24.8288 8.29299V21.3635C24.8288 21.67 24.5571 21.9404 24.2492 21.9404H21.5146C21.2067 21.9404 20.935 21.67 20.935 21.3635V8.29299C20.935 7.24735 21.8043 6.382 22.891 6.382H22.9091Z" fill="#1C2024"/>
<path d="M46.0284 1H53.0371C57.6009 1 59.8647 4.3172 59.8647 7.61637C59.8647 9.97807 58.7237 12.3398 56.4056 13.5116L59.593 19.0102C60.1725 19.9657 59.8284 21.1916 58.8686 21.7685C57.8725 22.3454 56.641 22.0029 56.0796 21.0474L52.1678 14.2508H48.0567V21.3359C48.0567 21.6604 47.7851 21.9308 47.4591 21.9308H44.5976C44.2717 21.9308 44 21.6604 44 21.3359V3.00114C44 1.90141 44.9055 1 46.0465 1H46.0284ZM52.8922 10.4288C54.8843 10.4288 55.8442 9.02257 55.8442 7.61637C55.8442 6.21016 54.8843 4.84002 52.8922 4.84002H48.0567V10.4288H52.8922Z" fill="#1C2024"/>
<path d="M69.7891 6.35437C74.0813 6.35437 77.1601 9.4372 77.1601 13.782C77.1601 15.3144 76.0734 15.693 75.2947 15.693H66.0584C66.5655 17.604 68.1049 18.866 70.0789 18.866C71.2199 18.866 72.1616 18.6857 73.049 18.1448C73.538 17.8744 74.0089 17.7482 74.4073 17.7482C75.4215 17.7482 76.1278 18.5234 76.1278 19.3888C76.1278 20.0198 75.7656 20.6688 74.9868 21.1556C73.5742 22.0209 71.8537 22.3274 70.0789 22.3274C65.4245 22.3274 62.1104 19.0102 62.1104 14.3409C62.1104 9.67157 65.2978 6.35437 69.771 6.35437H69.7891ZM73.3025 12.9707C72.9947 11.0778 71.6183 9.83382 69.7891 9.83382C67.96 9.83382 66.5112 11.0597 66.0584 12.9707H73.3025Z" fill="#1C2024"/>
<path d="M88.8052 7.36391C89.5658 7.85068 89.8918 8.49969 89.8918 9.13068C89.8918 9.99604 89.2217 10.7713 88.2619 10.7713C87.8635 10.7713 87.4288 10.627 86.9761 10.3746C86.1973 9.97801 85.4367 9.79773 84.5674 9.79773C83.6981 9.79773 83.1548 10.2484 83.1548 10.9335C83.1548 13.1149 90.58 12.0332 90.58 17.4958C90.58 20.5245 88.2981 22.3995 84.7123 22.3995C82.9918 22.3995 81.38 22.1651 80.076 21.3899C79.2973 20.9031 78.9351 20.2541 78.9351 19.6231C78.9351 18.7578 79.6233 17.9826 80.6555 17.9826C81.054 17.9826 81.5248 18.1268 82.0138 18.3792C82.8831 18.8299 83.7343 18.9561 84.7123 18.9561C86.0705 18.9561 86.7587 18.271 86.7587 17.604C86.7587 15.2062 79.3335 16.2879 79.3335 11.0417C79.3335 8.17518 81.3256 6.3363 84.5674 6.3363C86.1249 6.3363 87.6099 6.60673 88.8052 7.34589V7.36391Z" fill="#1C2024"/>
<rect x="26.9751" y="14.4747" width="7.35482" height="7.35483" rx="1.07143" fill="#1C2024" fill-opacity="0.3"/>
<rect x="30.749" y="10.6038" width="7.54837" height="7.54838" rx="1.07143" fill="#1C2024" fill-opacity="0.6"/>
<rect x="34.6201" y="6.82959" width="7.35482" height="7.35483" rx="1.07143" fill="#1C2024"/>
</svg>
