<svg width="22" height="24" viewBox="0 0 22 24" fill="none" xmlns="http://www.w3.org/2000/svg">
<path fill-rule="evenodd" clip-rule="evenodd" d="M12.2756 2.25H6.1218C4.82949 2.25 3.59051 2.76282 2.67667 3.67665C1.76282 4.59049 1.25 5.82945 1.25 7.12174V17.378C1.25 18.6703 1.76282 19.9093 2.67667 20.8231C3.59051 21.737 4.82949 22.2498 6.1218 22.2498H16.3782C17.6705 22.2498 18.9095 21.737 19.8233 20.8231C20.7372 19.9093 21.25 18.6703 21.25 17.378C21.25 14.7145 21.25 11.7371 21.25 11.7371C21.25 11.3125 20.9054 10.9679 20.4808 10.9679C20.0562 10.9679 19.7115 11.3125 19.7115 11.7371V17.378C19.7115 18.2621 19.3608 19.1103 18.7351 19.7349C18.1105 20.3606 17.2623 20.7113 16.3782 20.7113H6.1218C5.23769 20.7113 4.38949 20.3606 3.76487 19.7349C3.13923 19.1103 2.78846 18.2621 2.78846 17.378C2.78846 14.3247 2.78846 10.175 2.78846 7.12174C2.78846 6.23765 3.13923 5.38946 3.76487 4.76485C4.38949 4.13921 5.23769 3.78845 6.1218 3.78845H12.2756C12.7003 3.78845 13.0449 3.44383 13.0449 3.01922C13.0449 2.59461 12.7003 2.25 12.2756 2.25Z" fill="#1C2024"/>
<path fill-rule="evenodd" clip-rule="evenodd" d="M20.9627 15.7513C20.9627 15.7513 18.8663 14.0754 17.3545 12.8662C16.1832 11.9277 14.4817 12.0723 13.4848 13.1944C11.173 15.7943 6.57296 20.9697 6.57296 20.9697C6.29091 21.2866 6.31962 21.7738 6.63757 22.0558C6.9545 22.3379 7.44168 22.3092 7.72373 21.9912C7.72373 21.9912 12.3227 16.8169 14.6345 14.2159C15.0878 13.7062 15.8612 13.6405 16.3935 14.0672L20.0007 16.9533C20.333 17.2179 20.8171 17.1646 21.0827 16.8333C21.3473 16.501 21.294 16.0169 20.9627 15.7513Z" fill="#1C2024"/>
<path fill-rule="evenodd" clip-rule="evenodd" d="M12.2805 14.7576C12.2805 14.7576 9.55534 12.2807 7.8938 10.7699C6.89278 9.86018 5.38611 9.78839 4.30406 10.6007C3.10919 11.4961 1.55739 12.6602 1.55739 12.6602C1.21791 12.9145 1.14919 13.3976 1.40355 13.7371C1.65791 14.0765 2.14098 14.1453 2.48047 13.8909C2.48047 13.8909 4.03226 12.7268 5.22714 11.8314C5.71842 11.4622 6.40355 11.494 6.85893 11.9084L11.2446 15.896C11.5594 16.1811 12.0466 16.1586 12.3318 15.8447C12.6169 15.5299 12.5943 15.0427 12.2805 14.7576Z" fill="#1C2024"/>
<path d="M8.68495 8.14733C9.53461 8.14733 10.2234 7.45854 10.2234 6.60888C10.2234 5.75922 9.53461 5.07043 8.68495 5.07043C7.83528 5.07043 7.14648 5.75922 7.14648 6.60888C7.14648 7.45854 7.83528 8.14733 8.68495 8.14733Z" fill="#1C2024"/>
<path fill-rule="evenodd" clip-rule="evenodd" d="M16.8919 2.25C15.0519 2.25 13.5586 3.74332 13.5586 5.5833C13.5586 7.42328 15.0519 8.9166 16.8919 8.9166C18.7319 8.9166 20.2253 7.42328 20.2253 5.5833C20.2253 3.74332 18.7319 2.25 16.8919 2.25ZM16.8919 3.78845C17.8827 3.78845 18.6868 4.59254 18.6868 5.5833C18.6868 6.57406 17.8827 7.37815 16.8919 7.37815C15.9012 7.37815 15.0971 6.57406 15.0971 5.5833C15.0971 4.59254 15.9012 3.78845 16.8919 3.78845Z" fill="#1C2024"/>
<path fill-rule="evenodd" clip-rule="evenodd" d="M21.0249 8.62967L19.4864 7.09123C19.1869 6.79072 18.6987 6.79072 18.3992 7.09123C18.0987 7.39071 18.0987 7.87891 18.3992 8.1784L19.9377 9.71684C20.2372 10.0174 20.7254 10.0174 21.0249 9.71684C21.3254 9.41736 21.3254 8.92916 21.0249 8.62967Z" fill="#1C2024"/>
</svg>
