<svg width="45" height="17" viewBox="0 0 45 17" fill="none" xmlns="http://www.w3.org/2000/svg">
<g clip-path="url(#clip0_4610_61508)">
<path d="M12.1381 7.80349C12.0893 9.33116 11.8972 9.63623 11.0586 9.63623V11.5563H11.3711C13.4609 11.5563 13.9631 10.4501 14.0404 7.99212L14.1256 5.27212H16.0847V11.5563H18.129V3.36719H12.2802L12.1381 7.80349Z" fill="#EF3124"/>
<path d="M23.2119 5.85431H21.7357V3.36719H19.6914V11.5563H23.2403C25.4698 11.5563 26.2641 10.0729 26.2641 8.67561C26.2641 6.87198 25.1562 5.85315 23.2119 5.85315M23.0562 9.7515H21.7357V7.67075H23.0562C23.7664 7.67075 24.1914 7.99095 24.1914 8.67445C24.1914 9.41616 23.78 9.7515 23.0562 9.7515Z" fill="#EF3124"/>
<path d="M32.9234 3.17692V0.136719H30.8791V3.17692C28.5371 3.38069 26.9609 5.08302 26.9609 7.4537C26.9609 9.82439 28.5371 11.5419 30.8791 11.7456V14.8301H32.9234V11.7456C35.2655 11.557 36.8416 9.83953 36.8416 7.4537C36.8416 5.06788 35.2655 3.36555 32.9234 3.17692ZM30.8791 9.76733C29.7439 9.60665 29.0337 8.73453 29.0337 7.45487C29.0337 6.17521 29.7439 5.30192 30.8791 5.1424V9.7685V9.76733ZM32.9234 9.76733V5.14124C34.0587 5.30076 34.7689 6.17405 34.7689 7.4537C34.7689 8.73336 34.0587 9.60665 32.9234 9.76617" fill="#EF3124"/>
<path d="M44.5067 9.03977V6.29066C44.5067 4.28326 43.2579 3.01758 41.1567 3.01758C39.0556 3.01758 37.8352 4.35662 37.7352 5.75271H39.8079C39.8783 5.44765 40.1908 4.92367 41.1567 4.92367C41.9522 4.92367 42.4624 5.3021 42.4624 6.29066H40.4317C38.6147 6.29066 37.5352 7.26525 37.5352 8.89422C37.5352 10.5232 38.7158 11.7598 40.417 11.7598C41.6647 11.7598 42.3579 11.1555 42.6602 10.6979C42.9295 11.2509 43.5261 11.556 44.3067 11.556H45.017V9.66504C44.6477 9.66504 44.5056 9.49039 44.5056 9.03977M42.4613 8.50182C42.4613 9.4473 41.8079 9.98525 40.9567 9.98525C40.2181 9.98525 39.6363 9.70929 39.6363 8.89422C39.6363 8.07915 40.2749 7.96388 40.8283 7.96388H42.4613V8.50182Z" fill="#EF3124"/>
<path d="M10.9318 14.7188H0V17.0464H10.9318V14.7188Z" fill="#EF3124"/>
<path d="M7.4527 1.70466C7.1402 0.752192 6.78111 0 5.55043 0C4.31974 0 3.93679 0.748699 3.60952 1.70466L0.226562 11.5565H2.46974L3.25043 9.21493H7.56634L8.2902 11.5565H10.6754L7.4527 1.70466ZM3.90384 7.23664L5.43679 2.56747H5.49361L6.94134 7.23664H3.9027H3.90384Z" fill="#EF3124"/>
</g>
<defs>
<clipPath id="clip0_4610_61508">
<rect width="45" height="17" fill="white"/>
</clipPath>
</defs>
</svg>
