<svg width="24" height="24" viewBox="0 0 24 24" fill="none" xmlns="http://www.w3.org/2000/svg">
<rect width="24" height="24" fill="white" fill-opacity="0.01"/>
<path fill-rule="evenodd" clip-rule="evenodd" d="M4.80078 3.99995C4.80078 3.55813 5.15896 3.19995 5.60078 3.19995H18.4008C18.8425 3.19995 19.2008 3.55813 19.2008 3.99995V21.6C19.2008 21.8908 19.043 22.1587 18.7886 22.2996C18.5342 22.4406 18.2233 22.4324 17.9768 22.2784L12.0008 18.5433L6.02478 22.2784C5.77817 22.4324 5.46733 22.4406 5.21297 22.2996C4.95861 22.1587 4.80078 21.8908 4.80078 21.6V3.99995ZM6.40078 4.79995V20.1566L11.1528 17.1865C11.6716 16.8624 12.3299 16.8624 12.8488 17.1865L17.6008 20.1566V4.79995H6.40078Z" fill="#1C2024"/>
</svg>
