<svg width="16" height="16" viewBox="0 0 16 16" fill="none" xmlns="http://www.w3.org/2000/svg">
<rect width="16" height="16" fill="white" fill-opacity="0.01"/>
<path fill-rule="evenodd" clip-rule="evenodd" d="M3.2002 2.66663C3.2002 2.37208 3.43898 2.1333 3.73353 2.1333H12.2669C12.5614 2.1333 12.8002 2.37208 12.8002 2.66663V14.4C12.8002 14.5939 12.695 14.7724 12.5254 14.8664C12.3558 14.9604 12.1486 14.955 11.9842 14.8522L8.0002 12.3622L4.0162 14.8522C3.85179 14.955 3.64456 14.9604 3.47499 14.8664C3.30541 14.7724 3.2002 14.5939 3.2002 14.4V2.66663ZM4.26686 3.19997V13.4377L7.43486 11.4577C7.78075 11.2416 8.21964 11.2416 8.56553 11.4577L11.7335 13.4377V3.19997H4.26686Z" fill="white"/>
</svg>
