<svg width="21" height="15" viewBox="0 0 21 15" fill="none" xmlns="http://www.w3.org/2000/svg">
<path fill-rule="evenodd" clip-rule="evenodd" d="M0.900098 0.300781C0.458274 0.300781 0.100098 0.658957 0.100098 1.10078C0.100098 1.54261 0.458274 1.90078 0.900098 1.90078H20.1001C20.5419 1.90078 20.9001 1.54261 20.9001 1.10078C20.9001 0.658957 20.5419 0.300781 20.1001 0.300781H0.900098ZM0.100098 7.50078C0.100098 7.05896 0.458274 6.70078 0.900098 6.70078H20.1001C20.5419 6.70078 20.9001 7.05896 20.9001 7.50078C20.9001 7.94261 20.5419 8.30078 20.1001 8.30078H0.900098C0.458274 8.30078 0.100098 7.94261 0.100098 7.50078ZM0.100098 13.9008C0.100098 13.459 0.458274 13.1008 0.900098 13.1008H20.1001C20.5419 13.1008 20.9001 13.459 20.9001 13.9008C20.9001 14.3425 20.5419 14.7008 20.1001 14.7008H0.900098C0.458274 14.7008 0.100098 14.3425 0.100098 13.9008Z" fill="#1C2024"/>
</svg>
