<svg width="21" height="20" viewBox="0 0 21 20" fill="none" xmlns="http://www.w3.org/2000/svg">
<path d="M2.16602 2.5H4.24935L5.91602 14.1667H14.666M14.666 14.1667C13.7455 14.1667 12.9993 14.9129 12.9993 15.8333C12.9993 16.7538 13.7455 17.5 14.666 17.5C15.5865 17.5 16.3327 16.7538 16.3327 15.8333C16.3327 14.9129 15.5865 14.1667 14.666 14.1667ZM5.55887 11.6667H15.4993L17.9993 4.16667H4.48744M9.66602 15.8333C9.66602 16.7538 8.91982 17.5 7.99935 17.5C7.07887 17.5 6.33268 16.7538 6.33268 15.8333C6.33268 14.9129 7.07887 14.1667 7.99935 14.1667C8.91982 14.1667 9.66602 14.9129 9.66602 15.8333Z" stroke="white" stroke-width="1.25" stroke-linecap="round" stroke-linejoin="round"/>
</svg>
