<svg width="16" height="16" viewBox="0 0 16 16" fill="none" xmlns="http://www.w3.org/2000/svg">
<rect width="16" height="16" fill="white" fill-opacity="0.01"/>
<path fill-rule="evenodd" clip-rule="evenodd" d="M13.3333 3.20046L2.66667 3.20048C1.78301 3.20048 1.06667 3.91683 1.06667 4.80048V10.1338C1.06667 11.0175 1.78301 11.7338 2.66667 11.7338H8.00003C8.14148 11.7338 8.27714 11.79 8.37715 11.8901L10.6667 14.1795V12.2671C10.6667 11.9726 10.9055 11.7338 11.2 11.7338H13.3333C14.217 11.7338 14.9333 11.0175 14.9333 10.1338V4.80046C14.9333 3.9168 14.217 3.20046 13.3333 3.20046ZM2.66666 2.13381L13.3333 2.13379C14.8061 2.13379 16 3.3277 16 4.80046V10.1338C16 11.6065 14.8061 12.8005 13.3333 12.8005H11.7333V15.4671C11.7333 15.6828 11.6034 15.8773 11.4041 15.9598C11.2048 16.0424 10.9754 15.9967 10.8228 15.8443L7.77912 12.8005H2.66667C1.19391 12.8005 0 11.6065 0 10.1338V4.80048C0 3.32772 1.1939 2.13382 2.66666 2.13381Z" fill="#1C2024"/>
</svg>
