<svg width="20" height="20" viewBox="0 0 20 20" fill="none" xmlns="http://www.w3.org/2000/svg">
<path fill-rule="evenodd" clip-rule="evenodd" d="M10.0032 0.333984C15.3435 0.333984 19.6743 4.66485 19.6743 10.0051C19.6743 15.3454 15.3435 19.6763 10.0032 19.6763C4.66289 19.6763 0.332031 15.3454 0.332031 10.0051C0.332031 4.66485 4.66289 0.333984 10.0032 0.333984ZM7.99485 13.1464L5.62712 10.7767C5.22374 10.3731 5.22365 9.7149 5.62712 9.31136C6.03066 8.9079 6.69178 8.91043 7.09239 9.31136L8.76163 10.9819L12.9141 6.82941C13.3177 6.42586 13.9759 6.42586 14.3794 6.82941C14.783 7.23287 14.7824 7.8917 14.3794 8.29468L9.49308 13.181C9.09012 13.584 8.43127 13.5846 8.02781 13.181C8.01647 13.1697 8.00554 13.1582 7.99485 13.1464Z" fill="#3E9B4F"/>
</svg>
