<svg width="18" height="18" viewBox="0 0 18 18" fill="none" xmlns="http://www.w3.org/2000/svg">
<path fill-rule="evenodd" clip-rule="evenodd" d="M8.99948 0.132812C8.63128 0.132812 8.33282 0.431285 8.33282 0.799485V3.69596C8.33282 4.06415 8.63128 4.36263 8.99948 4.36263C9.36767 4.36263 9.66615 4.06415 9.66615 3.69596V1.49524C13.5144 1.83268 16.5328 5.06359 16.5328 8.99948C16.5328 13.16 13.16 16.5328 8.99948 16.5328C4.83894 16.5328 1.46615 13.16 1.46615 8.99948C1.46615 7.141 2.13827 5.44122 3.2535 4.12738C3.49176 3.84668 3.45736 3.42598 3.17666 3.18771C2.89596 2.94944 2.47526 2.98384 2.23699 3.26454C0.924911 4.81028 0.132812 6.81323 0.132812 8.99948C0.132812 13.8964 4.10255 17.8662 8.99948 17.8662C13.8964 17.8662 17.8662 13.8964 17.8662 8.99948C17.8662 4.10255 13.8964 0.132812 8.99948 0.132812ZM7.98683 9.7738L4.63102 5.096C4.53592 4.96344 4.55079 4.78154 4.66615 4.66618C4.7815 4.55082 4.96342 4.53595 5.09596 4.63104L9.77377 7.98686C10.4159 8.4475 10.4916 9.37406 9.93282 9.93284C9.37403 10.4916 8.44747 10.4159 7.98683 9.7738Z" fill="#1C2024"/>
</svg>
