<svg width="24" height="24" viewBox="0 0 24 24" fill="none" xmlns="http://www.w3.org/2000/svg">
<rect width="24" height="24" fill="white" fill-opacity="0.01"/>
<path fill-rule="evenodd" clip-rule="evenodd" d="M8.79922 3.19995H7.80618C7.16221 3.19994 6.63072 3.19994 6.19776 3.23531C5.74808 3.27205 5.33472 3.3509 4.94645 3.54874C4.34434 3.85552 3.85479 4.34507 3.548 4.94718C3.35016 5.33546 3.27132 5.74882 3.23458 6.1985C3.1992 6.63144 3.1992 7.16293 3.19922 7.80688V8.79995C3.19922 9.24178 3.5574 9.59995 3.99922 9.59995C4.44104 9.59995 4.79922 9.24178 4.79922 8.79995V7.83995C4.79922 7.15469 4.79984 6.68885 4.82927 6.32878C4.85792 5.97805 4.90986 5.79869 4.9736 5.67357C5.12701 5.37251 5.37178 5.12774 5.67284 4.97434C5.79796 4.91059 5.97732 4.85866 6.32805 4.83C6.68812 4.80058 7.15396 4.79995 7.83922 4.79995H8.79922C9.24104 4.79995 9.59922 4.44178 9.59922 3.99995C9.59922 3.55813 9.24104 3.19995 8.79922 3.19995ZM20.7992 15.2C20.7992 14.7581 20.441 14.4 19.9992 14.4C19.5575 14.4 19.1992 14.7581 19.1992 15.2V16.16C19.1992 16.8452 19.1986 17.311 19.1691 17.6712C19.1405 18.0219 19.0887 18.2012 19.0248 18.3264C18.8714 18.6275 18.6267 18.8721 18.3256 19.0256C18.2005 19.0894 18.0211 19.1412 17.6704 19.1699C17.3103 19.1993 16.8445 19.2 16.1592 19.2H15.1992C14.7574 19.2 14.3992 19.5582 14.3992 20C14.3992 20.4417 14.7574 20.8 15.1992 20.8H16.1922C16.8362 20.8 17.3677 20.8 17.8007 20.7646C18.2504 20.7278 18.6637 20.6491 19.052 20.4512C19.6541 20.1444 20.1437 19.6548 20.4504 19.0528C20.6483 18.6644 20.7271 18.2512 20.7639 17.8014C20.7992 17.3684 20.7992 16.8371 20.7992 16.1931V15.2ZM3.99922 14.4C4.44104 14.4 4.79922 14.7581 4.79922 15.2V16.16C4.79922 16.8452 4.79984 17.311 4.82927 17.6712C4.85792 18.0219 4.90986 18.2012 4.9736 18.3264C5.12701 18.6275 5.37178 18.8721 5.67284 19.0256C5.79796 19.0894 5.97732 19.1412 6.32805 19.1699C6.68812 19.1993 7.15396 19.2 7.83922 19.2H8.79922C9.24104 19.2 9.59922 19.5582 9.59922 20C9.59922 20.4417 9.24104 20.8 8.79922 20.8H7.80618C7.16221 20.8 6.63072 20.8 6.19776 20.7646C5.74808 20.7278 5.33472 20.6491 4.94645 20.4512C4.34434 20.1444 3.85479 19.6548 3.548 19.0528C3.35016 18.6644 3.27132 18.2512 3.23458 17.8014C3.1992 17.3684 3.1992 16.8369 3.19922 16.1931V16.16V15.2C3.19922 14.7581 3.5574 14.4 3.99922 14.4ZM16.1592 4.79995C16.8445 4.79995 17.3103 4.80058 17.6704 4.83C18.0211 4.85866 18.2005 4.91059 18.3256 4.97434C18.6267 5.12774 18.8714 5.37251 19.0248 5.67357C19.0887 5.79869 19.1405 5.97805 19.1691 6.32878C19.1986 6.68885 19.1992 7.15469 19.1992 7.83995V8.79995C19.1992 9.24178 19.5575 9.59995 19.9992 9.59995C20.441 9.59995 20.7992 9.24178 20.7992 8.79995V7.80691C20.7992 7.16294 20.7992 6.63144 20.7639 6.1985C20.7271 5.74882 20.6483 5.33546 20.4504 4.94718C20.1437 4.34507 19.6541 3.85552 19.052 3.54874C18.6637 3.3509 18.2504 3.27205 17.8007 3.23531C17.3677 3.19994 16.8362 3.19994 16.1922 3.19995H16.1592H15.1992C14.7574 3.19995 14.3992 3.55813 14.3992 3.99995C14.3992 4.44178 14.7574 4.79995 15.1992 4.79995H16.1592Z" fill="white"/>
</svg>
