<svg width="20" height="20" viewBox="0 0 20 20" fill="none" xmlns="http://www.w3.org/2000/svg">
<path fill-rule="evenodd" clip-rule="evenodd" d="M19.1341 2.60185C19.6133 2.12282 19.6133 1.34613 19.1341 0.867092C18.6552 0.388053 17.8785 0.388053 17.3995 0.867092L10.0002 8.26639L2.6009 0.867092C2.12184 0.388053 1.34516 0.388053 0.866116 0.867092C0.387076 1.34613 0.387076 2.12282 0.866116 2.60185L8.26541 10.0012L0.866116 17.4004C0.387076 17.8796 0.387076 18.6561 0.866116 19.1353C1.34516 19.6142 2.12184 19.6142 2.6009 19.1353L10.0002 11.7359L17.3995 19.1353C17.8785 19.6142 18.6552 19.6142 19.1341 19.1353C19.6133 18.6561 19.6133 17.8796 19.1341 17.4004L11.7349 10.0012L19.1341 2.60185Z" fill="white"/>
</svg>
