<svg width="12" height="12" viewBox="0 0 12 12" fill="none" xmlns="http://www.w3.org/2000/svg">
<rect width="12" height="12" fill="white" fill-opacity="0.01"/>
<path fill-rule="evenodd" clip-rule="evenodd" d="M9.42518 3.22521C9.60486 3.04557 9.60486 2.75431 9.42518 2.57467C9.24558 2.39503 8.9543 2.39503 8.7747 2.57467L5.99994 5.34941L3.22522 2.57467C3.04557 2.39503 2.75431 2.39503 2.57467 2.57467C2.39503 2.75431 2.39503 3.04557 2.57467 3.22521L5.34941 5.99994L2.57467 8.77467C2.39503 8.95435 2.39503 9.24555 2.57467 9.42523C2.75431 9.60483 3.04557 9.60483 3.22522 9.42523L5.99994 6.65048L8.7747 9.42523C8.9543 9.60483 9.24558 9.60483 9.42518 9.42523C9.60486 9.24555 9.60486 8.95435 9.42518 8.77467L6.65048 5.99994L9.42518 3.22521Z" fill="#1F2D5C"/>
</svg>
