<svg width="10" height="10" viewBox="0 0 10 10" fill="none" xmlns="http://www.w3.org/2000/svg">
<path fill-rule="evenodd" clip-rule="evenodd" d="M9.28298 1.28245C9.43914 1.12624 9.43914 0.872979 9.28298 0.716771C9.12674 0.560555 8.87346 0.560555 8.71722 0.716771L5.0001 4.43392L1.28294 0.716771C1.12673 0.560555 0.873468 0.560555 0.71726 0.716771C0.561044 0.872979 0.561044 1.12624 0.71726 1.28245L4.43441 4.99961L0.71726 8.71673C0.561044 8.87297 0.561044 9.12625 0.71726 9.28249C0.873468 9.43865 1.12673 9.43865 1.28294 9.28249L5.0001 5.5653L8.71722 9.28249C8.87346 9.43865 9.12674 9.43865 9.28298 9.28249C9.43914 9.12625 9.43914 8.87297 9.28298 8.71673L5.56579 4.99961L9.28298 1.28245Z" fill="#00051D" fill-opacity="0.454902"/>
</svg>
