<svg width="10" height="10" viewBox="0 0 10 10" fill="none" xmlns="http://www.w3.org/2000/svg">
<rect width="10" height="10" fill="white" fill-opacity="0.01"/>
<path fill-rule="evenodd" clip-rule="evenodd" d="M1.33398 1.66671C1.33398 1.48261 1.48322 1.33337 1.66732 1.33337H3.66732C3.85141 1.33337 4.00065 1.48261 4.00065 1.66671C4.00065 1.8508 3.85141 2.00004 3.66732 2.00004H2.00065V3.66671C2.00065 3.8508 1.85141 4.00004 1.66732 4.00004C1.48322 4.00004 1.33398 3.8508 1.33398 3.66671V1.66671ZM6.00065 1.66671C6.00065 1.48261 6.14989 1.33337 6.33398 1.33337H8.33398C8.51805 1.33337 8.66732 1.48261 8.66732 1.66671V3.66671C8.66732 3.8508 8.51805 4.00004 8.33398 4.00004C8.14992 4.00004 8.00065 3.8508 8.00065 3.66671V2.00004H6.33398C6.14989 2.00004 6.00065 1.8508 6.00065 1.66671ZM1.66732 6.00004C1.85141 6.00004 2.00065 6.14928 2.00065 6.33337V8.00004H3.66732C3.85141 8.00004 4.00065 8.14931 4.00065 8.33337C4.00065 8.51744 3.85141 8.66671 3.66732 8.66671H1.66732C1.48322 8.66671 1.33398 8.51744 1.33398 8.33337V6.33337C1.33398 6.14928 1.48322 6.00004 1.66732 6.00004ZM8.33398 6.00004C8.51805 6.00004 8.66732 6.14928 8.66732 6.33337V8.33337C8.66732 8.51744 8.51805 8.66671 8.33398 8.66671H6.33398C6.14989 8.66671 6.00065 8.51744 6.00065 8.33337C6.00065 8.14931 6.14989 8.00004 6.33398 8.00004H8.00065V6.33337C8.00065 6.14928 8.14992 6.00004 8.33398 6.00004Z" fill="white"/>
</svg>
