<svg width="16" height="16" viewBox="0 0 16 16" fill="none" xmlns="http://www.w3.org/2000/svg">
<rect width="16" height="16" fill="white" fill-opacity="0.01"/>
<path fill-rule="evenodd" clip-rule="evenodd" d="M8 11.7326C5.12304 11.7326 2.69815 10.2625 1.1693 7.99923C2.69815 5.73592 5.12304 4.26589 8 4.26589C10.8769 4.26589 13.3019 5.73592 14.8307 7.99923C13.3019 10.2625 10.8769 11.7326 8 11.7326ZM8 3.19922C4.59505 3.19922 1.76682 5.01936 0.0810669 7.71656C-0.0270227 7.88951 -0.0270223 8.10896 0.0810682 8.2819C1.76682 10.9791 4.59505 12.7992 8 12.7992C11.4049 12.7992 14.2332 10.9791 15.9189 8.2819C16.027 8.10896 16.027 7.88951 15.9189 7.71656C14.2332 5.01936 11.4049 3.19922 8 3.19922ZM8 10.1326C9.17821 10.1326 10.1333 9.17743 10.1333 7.99922C10.1333 6.82101 9.17821 5.86589 8 5.86589C6.82179 5.86589 5.86667 6.82101 5.86667 7.99922C5.86667 9.17743 6.82179 10.1326 8 10.1326Z" fill="#8B8D98"/>
</svg>
