<svg width="14" height="24" viewBox="0 0 14 24" fill="none" xmlns="http://www.w3.org/2000/svg">
<path d="M14 16.62C14 18.68 13.3195 20.425 11.9585 21.855C10.5977 23.285 8.94795 24 7.00905 24C5.07038 24 3.41753 23.285 2.0505 21.855C0.683483 20.425 0 18.68 0 16.62V5.22C0 3.76998 0.485503 2.5375 1.45657 1.5225C2.42763 0.507498 3.59192 0 4.94949 0C6.30707 0 7.47136 0.507498 8.44242 1.5225C9.41349 2.5375 9.89899 3.76998 9.89899 5.22V16.02C9.89899 16.86 9.61616 17.58 9.05051 18.18C8.48485 18.78 7.80137 19.08 7 19.08C6.19863 19.08 5.51515 18.7833 4.94949 18.1899C4.38384 17.5963 4.10101 16.873 4.10101 16.02V4.92H5.79798V16.02C5.79798 16.36 5.91581 16.655 6.15152 16.905C6.38722 17.155 6.67605 17.28 7.0181 17.28C7.36015 17.28 7.64298 17.155 7.86659 16.905C8.09019 16.655 8.20202 16.36 8.20202 16.02V5.22C8.20202 4.26 7.88621 3.45 7.25455 2.79C6.62288 2.13 5.85257 1.8 4.94356 1.8C4.03455 1.8 3.26621 2.1306 2.63851 2.7918C2.0108 3.453 1.69697 4.2624 1.69697 5.22V16.62C1.69697 18.18 2.21522 19.5 3.25168 20.58C4.28813 21.66 5.5423 22.2 7.01414 22.2C8.48332 22.2 9.73212 21.66 10.7605 20.58C11.7888 19.5 12.303 18.18 12.303 16.62V4.92H14V16.62Z" fill="#1C2024"/>
</svg>
