<svg width="18" height="18" viewBox="0 0 18 18" fill="none" xmlns="http://www.w3.org/2000/svg">
<rect width="18" height="18" fill="white" fill-opacity="0.01"/>
<path fill-rule="evenodd" clip-rule="evenodd" d="M8.48636 0.780273C8.00991 0.780273 7.59695 1.1101 7.4916 1.57476L7.2059 2.83495C6.7511 2.96722 6.31724 3.14834 5.91045 3.37214L4.81724 2.68301C4.4142 2.42894 3.88896 2.48773 3.55206 2.82462L2.82475 3.55194C2.48786 3.88883 2.42906 4.41407 2.68314 4.81711L3.37253 5.91072C3.14891 6.31739 2.96795 6.75112 2.83581 7.20576L1.57573 7.49143C1.11108 7.59677 0.78125 8.00975 0.78125 8.48618V9.51475C0.78125 9.9912 1.11108 10.4042 1.57573 10.5095L2.83596 10.7952C2.96817 11.25 3.14924 11.6838 3.37297 12.0906L2.6837 13.184C2.42963 13.587 2.48843 14.1122 2.82531 14.4492L3.55263 15.1765C3.88952 15.5133 4.41476 15.5721 4.81781 15.3181L5.91129 14.6288C6.31783 14.8524 6.75141 15.0333 7.2059 15.1655L7.4916 16.4257C7.59695 16.8903 8.00991 17.2202 8.48636 17.2202H9.51493C9.99137 17.2202 10.4043 16.8903 10.5097 16.4257L10.7953 15.1659C11.2502 15.0338 11.6841 14.8527 12.091 14.6291L13.1844 15.3183C13.5874 15.5724 14.1126 15.5136 14.4496 15.1767L15.1769 14.4494C15.5137 14.1125 15.5725 13.5872 15.3185 13.1843L14.6295 12.0912C14.8534 11.6842 15.0346 11.2502 15.1668 10.7951L16.4267 10.5095C16.8913 10.4042 17.2212 9.9912 17.2212 9.51475V8.48618C17.2212 8.00975 16.8913 7.59677 16.4267 7.49143L15.1669 7.20584C15.0348 6.75092 14.8537 6.31696 14.6299 5.91007L15.319 4.81687C15.5731 4.41383 15.5143 3.88859 15.1774 3.55169L14.4501 2.82438C14.1132 2.48749 13.588 2.42869 13.1849 2.68277L12.0918 3.37186C11.6847 3.14792 11.2505 2.96674 10.7953 2.8345L10.5097 1.57476C10.4043 1.1101 9.99137 0.780273 9.51493 0.780273H8.48636ZM5.90586 4.575C6.53791 4.13206 7.2692 3.82108 8.05974 3.68206L8.48636 1.80028H9.51493L9.94148 3.68178C10.7324 3.82063 11.4641 4.13161 12.0965 4.57468L13.7289 3.54563L14.4562 4.27294L13.4271 5.90539C13.87 6.53756 14.1809 7.26899 14.3197 8.05964L16.2012 8.48618V9.51475L14.3196 9.94132C14.1807 10.7321 13.8696 11.4636 13.4266 12.0957L14.4556 13.7282L13.7283 14.4554L12.0957 13.4263C11.4635 13.8691 10.7321 14.1799 9.94148 14.3187L9.51493 16.2002H8.48636L8.05974 14.3184C7.2695 14.1794 6.53849 13.8686 5.90661 13.4259L4.27388 14.4552L3.54656 13.7279L4.57578 12.0953C4.13294 11.4632 3.82206 10.7319 3.68312 9.94139L1.80125 9.51475V8.48618L3.68304 8.05957C3.82188 7.26917 4.13262 6.53798 4.57527 5.90597L3.546 4.27319L4.27332 3.54588L5.90586 4.575ZM10.8312 9.00008C10.8312 10.0107 10.0119 10.83 9.00128 10.83C7.99065 10.83 7.17138 10.0107 7.17138 9.00008C7.17138 7.98946 7.99065 7.17018 9.00128 7.17018C10.0119 7.17018 10.8312 7.98946 10.8312 9.00008ZM11.9112 9.00008C11.9112 10.6072 10.6084 11.91 9.00128 11.91C7.39418 11.91 6.09138 10.6072 6.09138 9.00008C6.09138 7.393 7.39418 6.09018 9.00128 6.09018C10.6084 6.09018 11.9112 7.393 11.9112 9.00008Z" fill="#1C2024"/>
</svg>
