<svg width="24" height="24" viewBox="0 0 24 24" fill="none" xmlns="http://www.w3.org/2000/svg">
<rect width="24" height="24" fill="white" fill-opacity="0.01"/>
<path fill-rule="evenodd" clip-rule="evenodd" d="M7.82963 3.76394C5.58721 3.76394 3.76406 5.58972 3.76406 7.84848C3.76406 10.2106 5.13536 12.6669 6.99617 14.9363C8.63043 16.9296 10.5515 18.6723 12.0001 19.9645C13.4487 18.6723 15.3698 16.9296 17.0041 14.9363C18.8649 12.6669 20.2363 10.2106 20.2363 7.84848C20.2363 5.58972 18.4131 3.76394 16.1707 3.76394C14.833 3.76394 14.1104 4.22914 13.6636 4.73346C13.2461 5.20469 13.0341 5.73703 12.8401 6.22386C12.8063 6.30861 12.7731 6.39199 12.7395 6.47343C12.6158 6.77268 12.3239 6.96788 12.0001 6.96788C11.6763 6.96788 11.3845 6.77269 11.2608 6.47344C11.2271 6.39199 11.1939 6.3086 11.1601 6.22381C10.9662 5.737 10.7541 5.20468 10.3366 4.73346C9.88984 4.22914 9.16721 3.76394 7.82963 3.76394ZM2.16406 7.84848C2.16406 4.71194 4.69769 2.16394 7.82963 2.16394C9.61353 2.16394 10.7762 2.81676 11.5342 3.67245C11.7131 3.87432 11.8671 4.08608 12.0001 4.29669C12.1332 4.08608 12.2872 3.87432 12.466 3.67245C13.2241 2.81676 14.3867 2.16394 16.1707 2.16394C19.3025 2.16394 21.8363 4.71194 21.8363 7.84848C21.8363 10.7846 20.1622 13.6081 18.2414 15.9508C16.4219 18.1699 14.2752 20.0813 12.8097 21.3862C12.7144 21.471 12.622 21.5534 12.5328 21.6329C12.2293 21.9038 11.771 21.9038 11.4675 21.6329C11.3783 21.5534 11.2858 21.471 11.1905 21.3862C9.72505 20.0813 7.57835 18.1699 5.75891 15.9508C3.83805 13.6081 2.16406 10.7846 2.16406 7.84848Z" fill="#1C2024"/>
</svg>
