<svg width="16" height="16" viewBox="0 0 16 16" fill="none" xmlns="http://www.w3.org/2000/svg">
<rect width="16" height="16" fill="white" fill-opacity="0.01"/>
<path fill-rule="evenodd" clip-rule="evenodd" d="M5.21992 2.50929C3.72497 2.50929 2.50954 3.72648 2.50954 5.23232C2.50954 6.80706 3.42374 8.44457 4.66428 9.95755C5.75378 11.2864 7.03451 12.4482 8.00025 13.3096C8.96599 12.4482 10.2467 11.2864 11.3362 9.95755C12.5768 8.44457 13.491 6.80706 13.491 5.23232C13.491 3.72648 12.2755 2.50929 10.7806 2.50929C9.88885 2.50929 9.40709 2.81943 9.10924 3.15564C8.83091 3.46979 8.68954 3.82469 8.56024 4.14924C8.53773 4.20574 8.51559 4.26133 8.49314 4.31562C8.4107 4.51512 8.21612 4.64525 8.00025 4.64525C7.78439 4.64525 7.5898 4.51513 7.50735 4.31563C7.48491 4.26133 7.46275 4.20573 7.44025 4.14921C7.31095 3.82466 7.16957 3.46978 6.89125 3.15564C6.59339 2.81943 6.11164 2.50929 5.21992 2.50929ZM1.44287 5.23232C1.44287 3.14129 3.13196 1.44263 5.21992 1.44263C6.40919 1.44263 7.18427 1.87784 7.68965 2.4483C7.80889 2.58288 7.91154 2.72406 8.00025 2.86446C8.08895 2.72406 8.1916 2.58288 8.31083 2.4483C8.81623 1.87784 9.59131 1.44263 10.7806 1.44263C12.8685 1.44263 14.5577 3.14129 14.5577 5.23232C14.5577 7.18975 13.4416 9.07207 12.1611 10.6339C10.9481 12.1133 9.51696 13.3875 8.53997 14.2575C8.47644 14.314 8.41483 14.3689 8.35533 14.422C8.15301 14.6025 7.84748 14.6025 7.64516 14.422C7.58567 14.3689 7.52406 14.314 7.46052 14.2575C6.48353 13.3875 5.0524 12.1133 3.83944 10.6339C2.55886 9.07207 1.44287 7.18975 1.44287 5.23232Z" fill="white"/>
</svg>
