<svg width="17" height="16" viewBox="0 0 17 16" fill="none" xmlns="http://www.w3.org/2000/svg">
<rect width="16" height="16" transform="translate(0.5)" fill="white" fill-opacity="0.01"/>
<path fill-rule="evenodd" clip-rule="evenodd" d="M9.77594 0.0430443C10.002 0.139774 10.1326 0.378514 10.0922 0.621051L9.12903 6.40001H13.8328C14.0347 6.40001 14.2195 6.51414 14.3098 6.69484C14.4002 6.87552 14.3807 7.09173 14.2594 7.25334L7.85946 15.7867C7.71194 15.9834 7.44904 16.0537 7.22299 15.957C6.99693 15.8603 6.86629 15.6215 6.90672 15.379L7.86988 9.6H3.16614C2.96414 9.6 2.77947 9.48587 2.68912 9.30518C2.59878 9.1245 2.61827 8.90828 2.73948 8.74667L9.13946 0.213374C9.28699 0.0166672 9.54988 -0.0536855 9.77594 0.0430443ZM4.23281 8.53334H8.49946C8.65623 8.53334 8.80507 8.60231 8.9064 8.72194C9.00773 8.84156 9.05131 8.99971 9.02554 9.15435L8.31844 13.3969L12.7662 7.46668H8.49946C8.34269 7.46668 8.19386 7.3977 8.09251 7.27808C7.99118 7.15845 7.94761 7.00031 7.97339 6.84566L8.68048 2.60311L4.23281 8.53334Z" fill="#218358"/>
</svg>
