<svg width="25" height="7" viewBox="0 0 25 7" fill="none" xmlns="http://www.w3.org/2000/svg">
<path fill-rule="evenodd" clip-rule="evenodd" d="M2.312 0.00117327C2.53536 -0.000173874 3.19918 -0.0604491 3.48036 0.896284C3.66977 1.54075 3.97149 2.59642 4.38551 4.06328H4.55412C4.99813 2.51681 5.30313 1.46114 5.46914 0.896284C5.75326 -0.0704151 6.46353 0.00119221 6.74765 0.00119221L8.93963 0.00119497V6.87548H6.7055V2.82435H6.55569L5.31027 6.87548H3.62937L2.38395 2.82135H2.23413V6.87548H0V0.00119497L2.312 0.00117327ZM12.1478 0.00119497V4.05534H12.326L13.841 0.721646C14.135 0.0582306 14.7618 0.00119497 14.7618 0.00119497H16.9238V6.8755H14.643V2.82135H14.4648L12.9795 6.15505C12.6855 6.81546 12.029 6.8755 12.029 6.8755H9.86701V0.00119497H12.1478ZM24.8072 3.26791C24.4891 4.17682 23.49 4.82775 22.3838 4.82775H19.992V6.8755H17.8231V3.26791H24.8072Z" fill="#CDCED6"/>
<path fill-rule="evenodd" clip-rule="evenodd" d="M22.4861 0.00195312H17.707C17.8208 1.53241 19.1281 2.84257 20.4814 2.84257H24.9556C25.2138 1.57059 24.325 0.00195312 22.4861 0.00195312Z" fill="#B9BBC6"/>
</svg>
