<svg width="15" height="17" viewBox="0 0 15 17" fill="none" xmlns="http://www.w3.org/2000/svg">
<path d="M4.9987 13.5833V4L14.1654 1.5V12.75M4.9987 13.5833C4.9987 14.7339 4.06596 15.6667 2.91536 15.6667C1.76477 15.6667 0.832031 14.7339 0.832031 13.5833C0.832031 12.4327 1.76477 11.5 2.91536 11.5C4.06596 11.5 4.9987 12.4327 4.9987 13.5833ZM14.1654 12.75C14.1654 13.9006 13.2326 14.8333 12.082 14.8333C10.9314 14.8333 9.9987 13.9006 9.9987 12.75C9.9987 11.5994 10.9314 10.6667 12.082 10.6667C13.2326 10.6667 14.1654 11.5994 14.1654 12.75Z" stroke="#60646C" stroke-width="1.25" stroke-linecap="round" stroke-linejoin="round"/>
</svg>
