<svg width="16" height="16" viewBox="0 0 16 16" fill="none" xmlns="http://www.w3.org/2000/svg">
<rect width="16" height="16" fill="white" fill-opacity="0.01"/>
<path fill-rule="evenodd" clip-rule="evenodd" d="M12.6433 1.22262C12.435 1.01434 12.0973 1.01434 11.8891 1.22262L3.96167 9.14999C3.86571 9.24595 3.78895 9.35932 3.73549 9.48406L2.17595 13.1229C2.09004 13.3235 2.13483 13.556 2.28904 13.7102C2.44325 13.8644 2.6758 13.9092 2.87625 13.8233L6.51518 12.2637C6.63991 12.2103 6.7533 12.1335 6.84925 12.0376L14.7767 4.11019C14.9849 3.90192 14.9849 3.56423 14.7767 3.35595L12.6433 1.22262ZM4.71592 9.90424L12.2661 2.35399L13.6452 3.73307L6.095 11.2834L4.50001 11.9669L4.03235 11.4993L4.71592 9.90424Z" fill="#1C2024"/>
</svg>
