<svg width="18" height="18" viewBox="0 0 18 18" fill="none" xmlns="http://www.w3.org/2000/svg">
<rect width="18" height="18" fill="white" fill-opacity="0.01"/>
<path fill-rule="evenodd" clip-rule="evenodd" d="M8.99966 1.05078C6.59723 1.05078 4.64966 2.99835 4.64966 5.40078C4.64966 7.38424 5.97715 9.05764 7.79214 9.58099C6.3593 9.75559 5.13035 10.2624 4.20455 11.1748C3.02626 12.3361 2.42969 14.0648 2.42969 16.3207C2.42969 16.6355 2.68489 16.8907 2.99969 16.8907C3.3145 16.8907 3.56969 16.6355 3.56969 16.3207C3.56969 14.2567 4.1131 12.8655 5.00476 11.9867C5.8981 11.1063 7.23175 10.6508 8.9996 10.6508C10.7675 10.6508 12.1012 11.1063 12.9946 11.9868C13.8862 12.8655 14.4297 14.2567 14.4297 16.3207C14.4297 16.6355 14.6848 16.8907 14.9997 16.8907C15.3144 16.8908 15.5697 16.6355 15.5697 16.3208C15.5697 14.0648 14.973 12.3361 13.7947 11.1748C12.8689 10.2624 11.64 9.75562 10.2072 9.58101C12.0221 9.05766 13.3497 7.38425 13.3497 5.40078C13.3497 2.99835 11.4021 1.05078 8.99966 1.05078ZM5.78966 5.40078C5.78966 3.62795 7.22683 2.19078 8.99966 2.19078C10.7725 2.19078 12.2097 3.62795 12.2097 5.40078C12.2097 7.17361 10.7725 8.61078 8.99966 8.61078C7.22683 8.61078 5.78966 7.17361 5.78966 5.40078Z" fill="#1F2D5C"/>
</svg>
