<svg width="18" height="14" viewBox="0 0 18 14" fill="none" xmlns="http://www.w3.org/2000/svg">
<path d="M16.5 11.1666V4.49996C16.5 3.57948 15.7538 2.83329 14.8333 2.83329H12.75C12.2898 2.83329 11.9167 2.4602 11.9167 1.99996C11.9167 1.53972 11.5436 1.16663 11.0833 1.16663H6.91667C6.45643 1.16663 6.08333 1.53972 6.08333 1.99996C6.08333 2.4602 5.71024 2.83329 5.25 2.83329H3.16667C2.24619 2.83329 1.5 3.57948 1.5 4.49996V11.1666C1.5 12.0871 2.24619 12.8333 3.16667 12.8333H14.8333C15.7538 12.8333 16.5 12.0871 16.5 11.1666Z" stroke="#60646C" stroke-width="1.25"/>
<path d="M11.5 7.83329C11.5 9.214 10.3807 10.3333 9 10.3333C7.61929 10.3333 6.5 9.214 6.5 7.83329C6.5 6.45258 7.61929 5.33329 9 5.33329C10.3807 5.33329 11.5 6.45258 11.5 7.83329Z" stroke="#60646C" stroke-width="1.25"/>
</svg>
