<svg width="18" height="18" viewBox="0 0 18 18" fill="none" xmlns="http://www.w3.org/2000/svg">
<path d="M1.02693 15.329C1.18385 16.277 2.0075 17 3 17H15C16.1046 17 17 16.1046 17 15V11.1901M1.02693 15.329C1.00922 15.222 1 15.1121 1 15V3C1 1.89543 1.89543 1 3 1H15C16.1046 1 17 1.89543 17 3V11.1901M1.02693 15.329L4.84762 11.5083C5.52765 10.9133 6.52219 10.8482 7.27403 11.3494L7.78316 11.6888C8.50784 12.1719 9.46185 12.1305 10.142 11.5865L12.7901 9.46793C13.4651 8.92795 14.4053 8.88557 15.1228 9.34842C15.2023 9.39972 15.2731 9.46325 15.34 9.53017L17 11.1901M8 6C8 7.10457 7.10457 8 6 8C4.89543 8 4 7.10457 4 6C4 4.89543 4.89543 4 6 4C7.10457 4 8 4.89543 8 6Z" stroke="#0D9B8A" stroke-width="1.5" stroke-linecap="round" stroke-linejoin="round"/>
</svg>
