<svg width="15" height="16" viewBox="0 0 15 16" fill="none" xmlns="http://www.w3.org/2000/svg">
<path d="M0.854476 13.2742C0.985237 14.0642 1.67161 14.6667 2.4987 14.6667H12.4987C13.4192 14.6667 14.1654 13.9205 14.1654 13V9.82514M0.854476 13.2742C0.839712 13.185 0.832031 13.0934 0.832031 13V3.00004C0.832031 2.07957 1.57822 1.33337 2.4987 1.33337H12.4987C13.4192 1.33337 14.1654 2.07957 14.1654 3.00004V9.82514M0.854476 13.2742L4.03838 10.0903C4.60508 9.59447 5.43386 9.54018 6.06039 9.95787L6.48467 10.2407C7.08857 10.6433 7.88357 10.6088 8.45032 10.1554L10.6571 8.38998C11.2196 7.94 12.0031 7.90468 12.601 8.29039C12.6673 8.33314 12.7263 8.38608 12.782 8.44185L14.1654 9.82514M6.66536 5.50004C6.66536 6.42052 5.91917 7.16671 4.9987 7.16671C4.07822 7.16671 3.33203 6.42052 3.33203 5.50004C3.33203 4.57957 4.07822 3.83337 4.9987 3.83337C5.91917 3.83337 6.66536 4.57957 6.66536 5.50004Z" stroke="#60646C" stroke-width="1.25" stroke-linecap="round" stroke-linejoin="round"/>
</svg>
