<svg width="12" height="12" viewBox="0 0 12 12" fill="none" xmlns="http://www.w3.org/2000/svg">
<path fill-rule="evenodd" clip-rule="evenodd" d="M6.53372 0.933724C6.53372 0.639175 6.29494 0.400391 6.00039 0.400391C5.70584 0.400391 5.46706 0.639175 5.46706 0.933724V5.46706H0.933724C0.639175 5.46706 0.400391 5.70584 0.400391 6.00039C0.400391 6.29494 0.639175 6.53372 0.933724 6.53372H5.46706V11.0671C5.46706 11.3616 5.70584 11.6004 6.00039 11.6004C6.29494 11.6004 6.53372 11.3616 6.53372 11.0671V6.53372H11.0671C11.3616 6.53372 11.6004 6.29494 11.6004 6.00039C11.6004 5.70584 11.3616 5.46706 11.0671 5.46706H6.53372V0.933724Z" fill="#1F2D5C"/>
</svg>
