<svg width="13" height="12" viewBox="0 0 13 12" fill="none" xmlns="http://www.w3.org/2000/svg">
<path fill-rule="evenodd" clip-rule="evenodd" d="M7.03324 0.933724C7.03324 0.639175 6.79445 0.400391 6.4999 0.400391C6.20535 0.400391 5.96657 0.639175 5.96657 0.933724V5.46706H1.43324C1.13869 5.46706 0.899902 5.70584 0.899902 6.00039C0.899902 6.29494 1.13869 6.53372 1.43324 6.53372H5.96657V11.0671C5.96657 11.3616 6.20535 11.6004 6.4999 11.6004C6.79445 11.6004 7.03324 11.3616 7.03324 11.0671V6.53372H11.5666C11.8611 6.53372 12.0999 6.29494 12.0999 6.00039C12.0999 5.70584 11.8611 5.46706 11.5666 5.46706H7.03324V0.933724Z" fill="white"/>
</svg>
