<svg width="7" height="10" viewBox="0 0 7 10" fill="none" xmlns="http://www.w3.org/2000/svg">
<path d="M2.67132 6.70006V6.12249C2.67132 5.84626 2.71526 5.59724 2.80315 5.37542C2.89104 5.14941 3.02916 4.94224 3.21749 4.75391C3.40583 4.56557 3.6423 4.3856 3.9269 4.21401C4.16964 4.06334 4.36426 3.91685 4.51074 3.77455C4.66141 3.62807 4.77023 3.46903 4.83719 3.29743C4.90416 3.12584 4.93764 2.92913 4.93764 2.70731V2.69475C4.93764 2.43527 4.87486 2.20508 4.7493 2.00419C4.62374 1.80329 4.44587 1.64425 4.21568 1.52706C3.98549 1.40988 3.71345 1.35128 3.39955 1.35128C3.08566 1.35128 2.81152 1.40988 2.57715 1.52706C2.34277 1.64425 2.15653 1.81166 2.01842 2.0293C1.88449 2.24693 1.80706 2.50432 1.78613 2.80148L1.77358 2.80776L0.706334 2.81403V2.80148C0.731445 2.35366 0.848633 1.94559 1.0579 1.57729C1.26716 1.20898 1.57059 0.916016 1.96819 0.698382C2.36579 0.480748 2.85756 0.371931 3.4435 0.371931C3.97084 0.371931 4.43331 0.472378 4.83092 0.67327C5.2327 0.869978 5.5445 1.13993 5.76632 1.48312C5.99233 1.82213 6.10533 2.20717 6.10533 2.63825V2.65081C6.10533 2.97726 6.05092 3.27441 5.9421 3.54227C5.83747 3.80594 5.6868 4.04241 5.49009 4.25167C5.29339 4.46094 5.0611 4.64718 4.79325 4.81041C4.52958 4.96526 4.32241 5.11384 4.17174 5.25614C4.02525 5.39844 3.92062 5.5512 3.85784 5.71443C3.79925 5.87765 3.76995 6.07017 3.76995 6.29199V6.70006H2.67132ZM3.30538 9.613C3.05008 9.613 2.84082 9.53139 2.67759 9.36816C2.51437 9.20494 2.43276 8.99568 2.43276 8.74037C2.43276 8.48089 2.51437 8.26953 2.67759 8.10631C2.84082 7.94308 3.05008 7.86147 3.30538 7.86147C3.56069 7.86147 3.76786 7.94308 3.9269 8.10631C4.09012 8.26953 4.17174 8.48089 4.17174 8.74037C4.17174 8.99568 4.09012 9.20494 3.9269 9.36816C3.76786 9.53139 3.56069 9.613 3.30538 9.613Z" fill="#1C2024"/>
</svg>
