<svg width="18" height="18" viewBox="0 0 18 18" fill="none" xmlns="http://www.w3.org/2000/svg">
<path fill-rule="evenodd" clip-rule="evenodd" d="M13.0909 7.36388C13.0909 10.527 10.5267 13.0912 7.36364 13.0912C4.20055 13.0912 1.63636 10.527 1.63636 7.36388C1.63636 4.20079 4.20055 1.63661 7.36364 1.63661C10.5267 1.63661 13.0909 4.20079 13.0909 7.36388ZM11.9599 13.1172C10.7002 14.125 9.10229 14.7275 7.36364 14.7275C3.29681 14.7275 0 11.4307 0 7.36388C0 3.29706 3.29681 0.000244141 7.36364 0.000244141C11.4305 0.000244141 14.7273 3.29706 14.7273 7.36388C14.7273 9.10253 14.1248 10.7004 13.1169 11.9602L17.7604 16.6034C18.0799 16.923 18.0799 17.4411 17.7604 17.7607C17.4409 18.0801 16.9228 18.0801 16.6032 17.7607L11.9599 13.1172Z" fill="#1C2024"/>
</svg>
