<svg width="18" height="18" viewBox="0 0 18 18" fill="none" xmlns="http://www.w3.org/2000/svg">
<path fill-rule="evenodd" clip-rule="evenodd" d="M13.0909 7.36383C13.0909 10.5269 10.5267 13.0911 7.36365 13.0911C4.20056 13.0911 1.63638 10.5269 1.63638 7.36383C1.63638 4.20074 4.20056 1.63656 7.36365 1.63656C10.5267 1.63656 13.0909 4.20074 13.0909 7.36383ZM11.9599 13.1171C10.7002 14.125 9.1023 14.7275 7.36365 14.7275C3.29683 14.7275 1.52588e-05 11.4307 1.52588e-05 7.36383C1.52588e-05 3.29701 3.29683 0.000195503 7.36365 0.000195503C11.4305 0.000195503 14.7273 3.29701 14.7273 7.36383C14.7273 9.10248 14.1248 10.7004 13.1169 11.9601L17.7605 16.6034C18.0799 16.923 18.0799 17.441 17.7605 17.7606C17.4409 18.08 16.9228 18.08 16.6032 17.7606L11.9599 13.1171Z" fill="#FCFCFD"/>
</svg>
