<svg width="24" height="22" viewBox="0 0 24 22" fill="none" xmlns="http://www.w3.org/2000/svg">
<path fill-rule="evenodd" clip-rule="evenodd" d="M1.92498 0.668601C1.60774 0.527606 1.23579 0.607289 1.00417 0.865865C0.772549 1.12444 0.734119 1.50289 0.909036 1.80274L6.27389 10.9996L0.909036 20.1966C0.734119 20.4964 0.772549 20.8748 1.00417 21.1334C1.23579 21.3919 1.60774 21.4716 1.92498 21.3306L23.525 11.7307C23.8138 11.6023 24.0001 11.3158 24.0001 10.9996C24.0001 10.6835 23.8138 10.397 23.525 10.2686L1.92498 0.668601ZM7.7529 10.3596L3.53979 3.13721L21.2303 10.9996L3.53979 18.862L7.75288 11.6396H14.4001C14.7535 11.6396 15.04 11.3531 15.04 10.9996C15.04 10.6462 14.7535 10.3596 14.4001 10.3596H7.7529Z" fill="#1C2024"/>
</svg>
