<svg width="24" height="24" viewBox="0 0 24 24" fill="none" xmlns="http://www.w3.org/2000/svg">
<path fill-rule="evenodd" clip-rule="evenodd" d="M18.3559 2.906C17.0853 2.0715 15.3749 2.0895 14.0222 3.00844C13.7134 3.21816 13.3825 3.54276 12.5285 4.39676L11.2911 5.6342C10.9005 6.02472 10.2674 6.02472 9.87685 5.6342C9.48631 5.24368 9.48631 4.61052 9.87685 4.22L11.1143 2.98256C11.1433 2.95356 11.1719 2.92494 11.2001 2.89672C11.9392 2.15744 12.4121 1.68434 12.8983 1.35406C14.8863 0.00360286 17.4737 -0.0661171 19.4537 1.23426C19.9367 1.5514 20.3987 2.01362 21.1013 2.71646C21.1307 2.74582 21.1603 2.77558 21.1905 2.80578C21.2207 2.83596 21.2505 2.86572 21.2799 2.89504C21.9827 3.59764 22.4449 4.05966 22.7621 4.54258C24.0625 6.52266 23.9927 9.11008 22.6423 11.098C22.3119 11.5842 21.8389 12.0571 21.0997 12.7962C21.0715 12.8244 21.0427 12.853 21.0137 12.882L19.7763 14.1195C19.3859 14.51 18.7527 14.51 18.3621 14.1195C17.9717 13.729 17.9717 13.0958 18.3621 12.7053L19.5995 11.4678C20.4535 10.6138 20.7781 10.2829 20.9879 9.97416C21.9069 8.62146 21.9249 6.91112 21.0903 5.64044C20.9009 5.3519 20.6001 5.04376 19.7763 4.22C18.9525 3.39622 18.6445 3.09548 18.3559 2.906ZM5.63421 9.87684C6.02473 10.2674 6.02473 10.9005 5.63421 11.2911L4.39677 12.5285C3.54277 13.3825 3.21815 13.7134 3.00843 14.0222C2.08951 15.3749 2.07151 17.0852 2.90599 18.3558C3.09549 18.6444 3.39621 18.9526 4.21999 19.7764C5.04377 20.6 5.35191 20.9008 5.64043 21.0904C6.91113 21.9248 8.62145 21.9068 9.97417 20.9878C10.2829 20.7782 10.6138 20.4536 11.4678 19.5996L12.7053 18.3622C13.0958 17.9716 13.729 17.9716 14.1195 18.3622C14.51 18.7526 14.51 19.3858 14.1195 19.7764L12.8821 21.0138C12.8531 21.0428 12.8244 21.0714 12.7962 21.0996C12.0572 21.8388 11.5842 22.312 11.098 22.6422C9.11007 23.9928 6.52267 24.0624 4.54257 22.762C4.05965 22.445 3.59763 21.9826 2.89503 21.2798C2.86571 21.2504 2.83595 21.2208 2.80577 21.1906C2.77559 21.1604 2.74583 21.1306 2.71649 21.1012C2.01361 20.3986 1.55141 19.9366 1.23427 19.4538C-0.0661076 17.4736 0.00359237 14.8863 1.35405 12.8983C1.68435 12.4121 2.15743 11.9392 2.89673 11.2001C2.92495 11.1719 2.95355 11.1433 2.98255 11.1143L4.21999 9.87684C4.61051 9.48632 5.24367 9.48632 5.63421 9.87684Z" fill="white"/>
</svg>
