<svg width="16" height="16" viewBox="0 0 16 16" fill="none" xmlns="http://www.w3.org/2000/svg">
<rect width="16" height="16" transform="translate(16 16) rotate(-180)" fill="white" fill-opacity="0.01"/>
<path fill-rule="evenodd" clip-rule="evenodd" d="M10.6664 8.00002C10.6664 7.11637 11.3828 6.40002 12.2664 6.40002C13.1501 6.40002 13.8664 7.11637 13.8664 8.00002C13.8664 8.88367 13.1501 9.60002 12.2664 9.60002C11.3828 9.60002 10.6664 8.88367 10.6664 8.00002ZM9.90577 6.75857C10.3524 5.91111 11.2419 5.33338 12.2664 5.33338C13.7392 5.33338 14.9331 6.52726 14.9331 8.00002C14.9331 9.47278 13.7392 10.6667 12.2664 10.6667C11.2419 10.6667 10.3524 10.0889 9.90577 9.24148L6.28858 11.5022C6.36091 11.7444 6.39977 12.001 6.39977 12.2667C6.39977 13.7394 5.20585 14.9333 3.7331 14.9333C2.26036 14.9333 1.06644 13.7394 1.06644 12.2667C1.06644 10.7939 2.26036 9.60002 3.73311 9.60002C4.59551 9.60002 5.36229 10.0094 5.84973 10.6444L9.61545 8.29084C9.60508 8.19533 9.59977 8.0983 9.59977 8.00002C9.59977 7.90174 9.60508 7.80472 9.61545 7.7092L5.84972 5.35562C5.36228 5.99064 4.59551 6.40002 3.73311 6.40002C2.26036 6.40002 1.06644 5.20613 1.06644 3.73338C1.06644 2.26063 2.26036 1.06671 3.73311 1.06671C5.20585 1.06671 6.39977 2.26063 6.39977 3.73338C6.39977 3.99909 6.36091 4.25562 6.28857 4.49786L9.90577 6.75857ZM3.73311 10.6667C2.84948 10.6667 2.1331 11.383 2.1331 12.2667C2.1331 13.1503 2.84948 13.8667 3.7331 13.8667C4.61673 13.8667 5.33311 13.1503 5.33311 12.2667C5.33311 11.383 4.61673 10.6667 3.73311 10.6667ZM2.13311 3.73338C2.13311 2.84965 2.84948 2.13338 3.73311 2.13338C4.61673 2.13338 5.33311 2.84965 5.33311 3.73338C5.33311 4.61701 4.61673 5.33338 3.73311 5.33338C2.84948 5.33338 2.13311 4.61701 2.13311 3.73338Z" fill="white"/>
</svg>
