<svg width="24" height="24" viewBox="0 0 24 24" fill="none" xmlns="http://www.w3.org/2000/svg">
<rect width="24" height="24" transform="translate(24 24) rotate(-180)" fill="white" fill-opacity="0.01"/>
<path fill-rule="evenodd" clip-rule="evenodd" d="M16.0004 12C16.0004 10.6746 17.0749 9.60003 18.4004 9.60003C19.7259 9.60003 20.8004 10.6746 20.8004 12C20.8004 13.3255 19.7259 14.4 18.4004 14.4C17.0749 14.4 16.0004 13.3255 16.0004 12ZM14.8594 10.1379C15.5293 8.86666 16.8636 8.00007 18.4004 8.00007C20.6095 8.00007 22.4004 9.79089 22.4004 12C22.4004 14.2092 20.6095 16 18.4004 16C16.8636 16 15.5293 15.1334 14.8594 13.8622L9.43361 17.2533C9.5421 17.6166 9.60039 18.0015 9.60039 18.4C9.60039 20.6092 7.80951 22.4 5.60039 22.4C3.39127 22.4 1.60039 20.6092 1.60039 18.4C1.60039 16.1909 3.39127 14.4 5.60039 14.4C6.89399 14.4 8.04417 15.0141 8.77534 15.9666L14.4239 12.4363C14.4084 12.293 14.4004 12.1474 14.4004 12C14.4004 11.8526 14.4084 11.7071 14.4239 11.5638L8.77532 8.03343C8.04415 8.98596 6.89399 9.60002 5.60039 9.60002C3.39127 9.60002 1.60039 7.80919 1.60039 5.60007C1.60039 3.39095 3.39127 1.60007 5.60039 1.60007C7.80951 1.60007 9.60039 3.39095 9.60039 5.60007C9.60039 5.99863 9.54211 6.38343 9.43359 6.74679L14.8594 10.1379ZM5.60039 16C4.27495 16 3.20039 17.0745 3.20039 18.4C3.20039 19.7255 4.27495 20.8 5.60039 20.8C6.92583 20.8 8.00039 19.7255 8.00039 18.4C8.00039 17.0745 6.92583 16 5.60039 16ZM3.20039 5.60007C3.20039 4.27447 4.27495 3.20007 5.60039 3.20007C6.92583 3.20007 8.00039 4.27447 8.00039 5.60007C8.00039 6.92551 6.92583 8.00007 5.60039 8.00007C4.27495 8.00007 3.20039 6.92551 3.20039 5.60007Z" fill="#1C2024"/>
</svg>
