<svg width="16" height="16" viewBox="0 0 16 16" fill="none" xmlns="http://www.w3.org/2000/svg">
<path d="M1.3335 2H3.00016L4.3335 11.3333H11.3335M11.3335 11.3333C10.5971 11.3333 10.0002 11.9303 10.0002 12.6667C10.0002 13.403 10.5971 14 11.3335 14C12.0699 14 12.6668 13.403 12.6668 12.6667C12.6668 11.9303 12.0699 11.3333 11.3335 11.3333ZM4.04778 9.33333H12.0002L14.0002 3.33333H3.19063M7.3335 12.6667C7.3335 13.403 6.73654 14 6.00016 14C5.26378 14 4.66683 13.403 4.66683 12.6667C4.66683 11.9303 5.26378 11.3333 6.00016 11.3333C6.73654 11.3333 7.3335 11.9303 7.3335 12.6667Z" stroke="#1F2D5C" stroke-linecap="round" stroke-linejoin="round"/>
</svg>
