<svg width="24" height="24" viewBox="0 0 24 24" fill="none" xmlns="http://www.w3.org/2000/svg">
<rect width="24" height="24" fill="white" fill-opacity="0.01"/>
<path fill-rule="evenodd" clip-rule="evenodd" d="M12.3578 1.68444C12.6288 1.81996 12.8 2.09697 12.8 2.39998V21.6C12.8 21.903 12.6288 22.18 12.3578 22.3155C12.0867 22.451 11.7624 22.4217 11.52 22.24L5.33333 17.6H2.4C1.07452 17.6 0 16.5254 0 15.2V8.79998C0 7.4745 1.07452 6.39998 2.4 6.39998H5.33333L11.52 1.75998C11.7624 1.57817 12.0867 1.54892 12.3578 1.68444ZM11.2 3.99998L6.08 7.83998C5.94152 7.94383 5.7731 7.99998 5.6 7.99998H2.4C1.95818 7.99998 1.6 8.35815 1.6 8.79998V15.2C1.6 15.6418 1.95818 16 2.4 16H5.6C5.7731 16 5.94152 16.0561 6.08 16.16L11.2 20V3.99998ZM23.7658 8.2343C24.0781 8.54671 24.0781 9.05324 23.7658 9.36566L21.1314 12L23.7658 14.6343C24.0781 14.9467 24.0781 15.4532 23.7658 15.7657C23.4533 16.0781 22.9467 16.0781 22.6342 15.7657L20 13.1314L17.3658 15.7657C17.0533 16.0781 16.5467 16.0781 16.2342 15.7657C15.9219 15.4532 15.9219 14.9467 16.2342 14.6343L18.8686 12L16.2342 9.36566C15.9219 9.05324 15.9219 8.54671 16.2342 8.2343C16.5467 7.92186 17.0533 7.92186 17.3658 8.2343L20 10.8686L22.6342 8.2343C22.9467 7.92186 23.4533 7.92186 23.7658 8.2343Z" fill="white"/>
</svg>
