<svg width="24" height="24" viewBox="0 0 24 24" fill="none" xmlns="http://www.w3.org/2000/svg">
<rect width="24" height="24" fill="white" fill-opacity="0.01"/>
<path fill-rule="evenodd" clip-rule="evenodd" d="M11.9515 1.68133C12.226 1.81557 12.4 2.09444 12.4 2.39997V21.6C12.4 21.9056 12.226 22.1845 11.9515 22.3187C11.677 22.4529 11.35 22.419 11.1088 22.2315L5.15408 17.6H2.4C1.07451 17.6 0 16.5254 0 15.2V8.79997C0 7.4745 1.07452 6.39997 2.4 6.39997H5.15408L11.1088 1.7685C11.35 1.58091 11.677 1.54709 11.9515 1.68133ZM10.8 4.03569L5.91973 7.83146C5.7793 7.94068 5.60648 7.99997 5.42858 7.99997H2.4C1.95818 7.99997 1.6 8.35815 1.6 8.79997V15.2C1.6 15.6418 1.95818 16 2.4 16H5.42858C5.60648 16 5.7793 16.0593 5.91973 16.1685L10.8 19.9643V4.03569ZM16.4454 6.15684C16.7397 5.96105 17.137 6.04089 17.3328 6.33516C19.6093 9.75674 19.6093 14.2432 17.3328 17.6648C17.137 17.959 16.7397 18.0389 16.4454 17.843C16.151 17.6473 16.0712 17.2501 16.267 16.9557C18.2578 13.9636 18.2578 10.0363 16.267 7.0442C16.0712 6.74991 16.151 6.35263 16.4454 6.15684ZM20.2856 2.28868C20.057 2.01901 19.6531 1.98564 19.3835 2.21415C19.1139 2.44265 19.0805 2.8465 19.309 3.11617C23.6437 8.23178 23.6437 15.7682 19.309 20.8838C19.0805 21.1534 19.1139 21.5573 19.3835 21.7857C19.6531 22.0144 20.057 21.9809 20.2856 21.7113C25.025 16.1182 25.025 7.88177 20.2856 2.28868Z" fill="white"/>
</svg>
