<svg width="24" height="24" viewBox="0 0 24 24" fill="none" xmlns="http://www.w3.org/2000/svg">
<rect width="24" height="24" fill="white" fill-opacity="0.01"/>
<path fill-rule="evenodd" clip-rule="evenodd" d="M12.8 2.39998C12.8 2.09697 12.6288 1.81996 12.3578 1.68444C12.0867 1.54892 11.7624 1.57817 11.52 1.75998L5.33333 6.39998H2.4C1.07452 6.39998 0 7.4745 0 8.79998V15.2C0 16.5254 1.07452 17.6 2.4 17.6H5.33333L11.52 22.24C11.7624 22.4217 12.0867 22.451 12.3578 22.3155C12.6288 22.18 12.8 21.903 12.8 21.6V2.39998ZM6.08 7.83998L11.2 3.99998V20L6.08 16.16C5.94152 16.0561 5.7731 16 5.6 16H2.4C1.95818 16 1.6 15.6418 1.6 15.2V8.79998C1.6 8.35815 1.95818 7.99998 2.4 7.99998H5.6C5.7731 7.99998 5.94152 7.94383 6.08 7.83998ZM17.3328 6.33516C17.137 6.04089 16.7397 5.96105 16.4454 6.15684C16.151 6.35263 16.0712 6.74991 16.267 7.0442C18.2578 10.0363 18.2578 13.9636 16.267 16.9557C16.0712 17.2501 16.151 17.6473 16.4454 17.843C16.7397 18.0389 17.137 17.959 17.3328 17.6648C19.6093 14.2432 19.6093 9.75674 17.3328 6.33516Z" fill="#1C2024"/>
</svg>
