<svg width="48" height="14" viewBox="0 0 48 14" fill="none" xmlns="http://www.w3.org/2000/svg">
<path d="M23.8989 5.96978C23.5677 5.84867 23.1345 5.81236 22.6632 5.81236H20.0387V5.03725H24.5486V3.70508H18.1914V9.46984H22.4975C23.0963 9.46984 23.5421 9.42141 23.8734 9.30024C24.5741 9.04589 25.0455 8.42827 25.0455 7.61685C25.0455 6.79338 24.5996 6.22412 23.8989 5.96978ZM22.9816 7.96807C22.8797 8.00444 22.7396 8.0165 22.5611 8.0165H20.0387V7.0961H22.5611C22.7651 7.0961 22.9306 7.10828 23.0581 7.16878C23.2109 7.24145 23.2874 7.37469 23.2874 7.54417C23.2874 7.71372 23.1982 7.89539 22.9816 7.96807Z" fill="#333333"/>
<path d="M30.2242 3.70508H27.5233L25.0391 9.46984H27.1284L27.4724 8.63418H30.2751L30.6319 9.46984H32.7085L30.2242 3.70508ZM27.931 7.36251L28.8101 5.03725H28.9502L29.8293 7.36251H27.931Z" fill="#333333"/>
<path d="M35.0894 7.32628V9.46985H33.2422V3.70508H35.0894V5.81237H38.0578V3.70508H39.9051V9.46985H38.0578V7.32628H35.0894Z" fill="#333333"/>
<path d="M42.8278 7.28993V9.46985H40.9805V3.70508H42.8278V5.87293H43.3374L45.5668 3.70508H47.8854L44.9298 6.46635L48.0001 9.46985H45.5413L43.3374 7.28993H42.8278Z" fill="#333333"/>
<path d="M0 0H14.7271V7.04099C14.7271 8.84599 13.7142 10.5139 12.0699 11.4165L7.36355 14L2.6572 11.4165C1.0129 10.5139 0 8.84599 0 7.04099V0Z" fill="#FFDD2D"/>
<path fill-rule="evenodd" clip-rule="evenodd" d="M4.04297 3.70508V5.89497C4.35798 5.55681 4.93072 5.32795 5.58559 5.32795H6.29724V7.87368C6.29724 8.55096 6.10366 9.14378 5.81644 9.46985H8.91197C8.62535 9.14345 8.43222 8.55138 8.43222 7.87497V5.32795H9.1439C9.79876 5.32795 10.3715 5.55681 10.6865 5.89497V3.70508H4.04297Z" fill="#333333"/>
</svg>
