<svg width="24" height="24" viewBox="0 0 24 24" fill="none" xmlns="http://www.w3.org/2000/svg">
<path d="M21.2177 8.24279V5.28712C21.2177 4.62281 20.9538 3.9857 20.484 3.51596C20.0143 3.04622 19.3772 2.78232 18.7129 2.78232H15.8198L13.7659 0.728379C13.2966 0.261857 12.6617 0 12 0C11.3383 0 10.7034 0.261857 10.2341 0.728379L8.24279 2.78232H5.28712C4.62281 2.78232 3.9857 3.04622 3.51596 3.51596C3.04622 3.9857 2.78232 4.62281 2.78232 5.28712V8.24279L0.728379 10.2341C0.261857 10.7034 0 11.3383 0 12C0 12.6617 0.261857 13.2966 0.728379 13.7659L2.78232 15.8198V18.7129C2.78232 19.3772 3.04622 20.0143 3.51596 20.484C3.9857 20.9538 4.62281 21.2177 5.28712 21.2177H8.24279L10.2341 23.2716C10.7034 23.7381 11.3383 24 12 24C12.6617 24 13.2966 23.7381 13.7659 23.2716L15.8198 21.2177H18.7129C19.3772 21.2177 20.0143 20.9538 20.484 20.484C20.9538 20.0143 21.2177 19.3772 21.2177 18.7129V15.8198L23.2716 13.7659C23.7381 13.2966 24 12.6617 24 12C24 11.3383 23.7381 10.7034 23.2716 10.2341L21.2177 8.24279Z" fill="#3A5BC7"/>
<path d="M11.0612 15.1309C10.8964 15.1319 10.733 15.1003 10.5804 15.038C10.4278 14.9756 10.289 14.8838 10.172 14.7677L8.24332 12.8891C8.00749 12.6533 7.875 12.3334 7.875 11.9999C7.875 11.6664 8.00749 11.3465 8.24332 11.1107C8.47915 10.8749 8.79901 10.7424 9.13253 10.7424C9.46604 10.7424 9.7859 10.8749 10.0217 11.1107L11.0111 12.1126L13.8791 9.23211C14.115 8.98299 14.4401 8.83776 14.783 8.82837C15.1259 8.81897 15.4585 8.94618 15.7076 9.18202C15.9568 9.41785 16.102 9.74298 16.1114 10.0859C16.1208 10.4288 15.9936 10.7614 15.7577 11.0105L12.0005 14.7677C11.8776 14.89 11.7307 14.9854 11.569 15.0479C11.4073 15.1104 11.2344 15.1387 11.0612 15.1309Z" fill="white"/>
</svg>
