<svg width="14" height="14" viewBox="0 0 14 14" fill="none" xmlns="http://www.w3.org/2000/svg">
<path d="M8.95348 12.5265H5.04239C4.65109 12.5208 4.27634 12.367 3.99309 12.0959C3.70984 11.8248 3.53896 11.4564 3.51462 11.0642L3.0512 3.98813C3.04882 3.93682 3.0566 3.88555 3.07408 3.83729C3.09157 3.78902 3.11841 3.74471 3.15305 3.70692C3.18874 3.66776 3.23195 3.63625 3.28009 3.61428C3.32822 3.59232 3.38028 3.58035 3.43314 3.5791H10.5627C10.6151 3.57899 10.6669 3.58968 10.715 3.61053C10.7631 3.63138 10.8064 3.66194 10.8422 3.7003C10.878 3.73866 10.9056 3.784 10.9232 3.83352C10.9409 3.88303 10.9482 3.93566 10.9447 3.98813L10.5016 11.0642C10.477 11.4598 10.3033 11.8312 10.0157 12.1028C9.72812 12.3745 9.34831 12.5259 8.95348 12.5265ZM3.86092 4.34602L4.25304 11.0182C4.266 11.2194 4.35485 11.4081 4.5015 11.5458C4.64815 11.6835 4.84157 11.76 5.04239 11.7596H8.95348C9.15394 11.7588 9.34669 11.6819 9.49309 11.5444C9.63948 11.4069 9.72869 11.219 9.74282 11.0182L10.1553 4.37158L3.86092 4.34602Z" fill="#E5484D"/>
<path d="M11.6154 4.63173H2.38462C2.28261 4.63173 2.18478 4.57628 2.11265 4.47758C2.04052 4.37888 2 4.24501 2 4.10542C2 3.96583 2.04052 3.83196 2.11265 3.73326C2.18478 3.63455 2.28261 3.5791 2.38462 3.5791H11.6154C11.7174 3.5791 11.8152 3.63455 11.8874 3.73326C11.9595 3.83196 12 3.96583 12 4.10542C12 4.24501 11.9595 4.37888 11.8874 4.47758C11.8152 4.57628 11.7174 4.63173 11.6154 4.63173Z" fill="#E5484D"/>
<path d="M8.47204 4.63158H5.52467C5.42736 4.63006 5.33438 4.58337 5.26557 4.50144C5.19675 4.41952 5.15752 4.30883 5.15625 4.19298V3.14035C5.16248 2.84025 5.2654 2.55448 5.44371 2.34221C5.62201 2.12994 5.86206 2.00741 6.11414 2H7.88257C8.13885 2.00763 8.38248 2.13421 8.56144 2.35273C8.74041 2.57125 8.84054 2.8644 8.84046 3.16959V4.19298C8.83919 4.30883 8.79996 4.41952 8.73115 4.50144C8.66233 4.58337 8.56936 4.63006 8.47204 4.63158ZM5.89309 3.75439H8.10362V3.16959C8.10362 3.0998 8.08033 3.03286 8.03887 2.98351C7.99742 2.93416 7.94119 2.90643 7.88257 2.90643H6.11414C6.05552 2.90643 5.99929 2.93416 5.95784 2.98351C5.91638 3.03286 5.89309 3.0998 5.89309 3.16959V3.75439Z" fill="#E5484D"/>
<path d="M8.57956 10.4214C8.51005 10.4201 8.44364 10.3803 8.39449 10.3105C8.34533 10.2406 8.31732 10.1462 8.31641 10.0475V6.05853C8.31641 5.95935 8.34413 5.86423 8.39348 5.7941C8.44284 5.72397 8.50977 5.68457 8.57956 5.68457C8.64936 5.68457 8.71629 5.72397 8.76564 5.7941C8.815 5.86423 8.84272 5.95935 8.84272 6.05853V10.0475C8.84181 10.1462 8.8138 10.2406 8.76464 10.3105C8.71548 10.3803 8.64908 10.4201 8.57956 10.4214Z" fill="#E5484D"/>
<path d="M5.41941 10.4214C5.3499 10.4201 5.28349 10.3803 5.23433 10.3105C5.18518 10.2406 5.15716 10.1462 5.15625 10.0475V6.05853C5.15625 5.95935 5.18398 5.86423 5.23333 5.7941C5.28268 5.72397 5.34961 5.68457 5.41941 5.68457C5.4892 5.68457 5.55614 5.72397 5.60549 5.7941C5.65484 5.86423 5.68257 5.95935 5.68257 6.05853V10.0475C5.68166 10.1462 5.65364 10.2406 5.60448 10.3105C5.55533 10.3803 5.48892 10.4201 5.41941 10.4214Z" fill="#E5484D"/>
<path d="M6.99753 10.4214C6.92802 10.4201 6.86161 10.3803 6.81246 10.3105C6.7633 10.2406 6.73528 10.1462 6.73438 10.0475V6.05853C6.73438 5.95935 6.7621 5.86423 6.81145 5.7941C6.8608 5.72397 6.92774 5.68457 6.99753 5.68457C7.06733 5.68457 7.13426 5.72397 7.18361 5.7941C7.23297 5.86423 7.26069 5.95935 7.26069 6.05853V10.0475C7.25978 10.1462 7.23176 10.2406 7.18261 10.3105C7.13345 10.3803 7.06704 10.4201 6.99753 10.4214Z" fill="#E5484D"/>
</svg>
