<svg width="24" height="24" viewBox="0 0 24 24" fill="none" xmlns="http://www.w3.org/2000/svg">
<rect width="24" height="24" fill="white" fill-opacity="0.01"/>
<path fill-rule="evenodd" clip-rule="evenodd" d="M12.5084 1.89105C12.2272 1.60988 11.7714 1.60988 11.4902 1.89105L6.69018 6.69105C6.40899 6.97224 6.40899 7.42811 6.69018 7.70929C6.97136 7.99046 7.42724 7.99046 7.70842 7.70929L11.2793 4.13841V15.2C11.2793 15.5976 11.6017 15.92 11.9993 15.92C12.3969 15.92 12.7193 15.5976 12.7193 15.2V4.13841L16.2903 7.70929C16.5714 7.99046 17.0272 7.99046 17.3083 7.70929C17.5896 7.42811 17.5896 6.97224 17.3083 6.69105L12.5084 1.89105ZM3.99922 16C4.44104 16 4.79922 16.3581 4.79922 16.8V19.2C4.79922 20.0861 5.51226 20.8 6.39338 20.8H17.6011C18.4839 20.8 19.1992 20.0845 19.1992 19.2V16.8C19.1992 16.3581 19.5575 16 19.9992 16C20.441 16 20.7992 16.3581 20.7992 16.8V19.2C20.7992 20.9664 19.3691 22.4 17.6011 22.4H6.39338C4.62352 22.4 3.19922 20.9648 3.19922 19.2V16.8C3.19922 16.3581 3.55739 16 3.99922 16Z" fill="#1C2024"/>
</svg>
