<svg width="16" height="16" viewBox="0 0 16 16" fill="none" xmlns="http://www.w3.org/2000/svg">
<rect width="16" height="16" fill="white" fill-opacity="0.01"/>
<path fill-rule="evenodd" clip-rule="evenodd" d="M8.33992 1.2607C8.15247 1.07326 7.84855 1.07326 7.6611 1.2607L4.4611 4.4607C4.27364 4.64816 4.27364 4.95207 4.4611 5.13953C4.64855 5.32697 4.95247 5.32697 5.13992 5.13953L7.52051 2.75894V10.1333C7.52051 10.3984 7.73541 10.6133 8.00051 10.6133C8.26561 10.6133 8.48051 10.3984 8.48051 10.1333V2.75894L10.8611 5.13953C11.0486 5.32697 11.3525 5.32697 11.5399 5.13953C11.7274 4.95207 11.7274 4.64816 11.5399 4.4607L8.33992 1.2607ZM2.66712 10.6667C2.96167 10.6667 3.20046 10.9054 3.20046 11.2V12.8C3.20046 13.3907 3.67582 13.8667 4.26323 13.8667H11.7351C12.3235 13.8667 12.8005 13.3897 12.8005 12.8V11.2C12.8005 10.9054 13.0393 10.6667 13.3338 10.6667C13.6283 10.6667 13.8671 10.9054 13.8671 11.2V12.8C13.8671 13.9776 12.9137 14.9334 11.7351 14.9334H4.26323C3.08333 14.9334 2.13379 13.9766 2.13379 12.8V11.2C2.13379 10.9054 2.37257 10.6667 2.66712 10.6667Z" fill="#60646C"/>
</svg>
