<svg width="16" height="16" viewBox="0 0 16 16" fill="none" xmlns="http://www.w3.org/2000/svg">
<rect width="16" height="16" fill="white" fill-opacity="0.01"/>
<path fill-rule="evenodd" clip-rule="evenodd" d="M8.33895 1.2607C8.15149 1.07326 7.84758 1.07326 7.66012 1.2607L4.46012 4.4607C4.27266 4.64816 4.27266 4.95207 4.46012 5.13953C4.64758 5.32697 4.95149 5.32697 5.13895 5.13953L7.51953 2.75894V10.1333C7.51953 10.3984 7.73443 10.6133 7.99953 10.6133C8.26463 10.6133 8.47953 10.3984 8.47953 10.1333V2.75894L10.8602 5.13953C11.0476 5.32697 11.3515 5.32697 11.5389 5.13953C11.7264 4.95207 11.7264 4.64816 11.5389 4.4607L8.33895 1.2607ZM2.66615 10.6667C2.9607 10.6667 3.19948 10.9054 3.19948 11.2V12.8C3.19948 13.3907 3.67484 13.8667 4.26225 13.8667H11.7341C12.3226 13.8667 12.7995 13.3897 12.7995 12.8V11.2C12.7995 10.9054 13.0383 10.6667 13.3328 10.6667C13.6273 10.6667 13.8661 10.9054 13.8661 11.2V12.8C13.8661 13.9776 12.9128 14.9334 11.7341 14.9334H4.26225C3.08235 14.9334 2.13281 13.9766 2.13281 12.8V11.2C2.13281 10.9054 2.3716 10.6667 2.66615 10.6667Z" fill="white"/>
</svg>
