<svg width="12" height="16" viewBox="0 0 12 16" fill="none" xmlns="http://www.w3.org/2000/svg">
<path fill-rule="evenodd" clip-rule="evenodd" d="M6.00013 0.933594C3.86464 0.933594 2.13347 2.66476 2.13347 4.80026C2.13347 6.56333 3.31346 8.0508 4.92678 8.51601C3.65315 8.67121 2.56074 9.12169 1.73781 9.93271C0.690439 10.965 0.160156 12.5016 0.160156 14.5068C0.160156 14.7867 0.387004 15.0135 0.666823 15.0135C0.946652 15.0135 1.17349 14.7867 1.17349 14.5068C1.17349 12.6722 1.65652 11.4356 2.44911 10.6544C3.24319 9.87187 4.42866 9.46692 6.00008 9.46692C7.57152 9.46692 8.75704 9.87187 9.55117 10.6545C10.3437 11.4356 10.8268 12.6722 10.8268 14.5068C10.8268 14.7867 11.0536 15.0135 11.3335 15.0135C11.6133 15.0136 11.8401 14.7867 11.8401 14.5069C11.8401 12.5016 11.3098 10.965 10.2624 9.9327C9.4395 9.1217 8.34707 8.67123 7.07347 8.51602C8.68675 8.05082 9.8668 6.56334 9.8668 4.80026C9.8668 2.66476 8.13563 0.933594 6.00013 0.933594ZM3.1468 4.80026C3.1468 3.22441 4.42428 1.94693 6.00013 1.94693C7.57599 1.94693 8.85347 3.22441 8.85347 4.80026C8.85347 6.37611 7.57599 7.65359 6.00013 7.65359C4.42428 7.65359 3.1468 6.37611 3.1468 4.80026Z" fill="#8E8C99"/>
</svg>
