<svg width="48" height="48" viewBox="0 0 48 48" fill="none" xmlns="http://www.w3.org/2000/svg">
<path d="M0.5 8C0.5 3.85787 3.85786 0.5 8 0.5H40C44.1421 0.5 47.5 3.85786 47.5 8V40C47.5 44.1421 44.1421 47.5 40 47.5H8C3.85787 47.5 0.5 44.1421 0.5 40V8Z" fill="#F7EDFE"/>
<path d="M0.5 8C0.5 3.85787 3.85786 0.5 8 0.5H40C44.1421 0.5 47.5 3.85786 47.5 8V40C47.5 44.1421 44.1421 47.5 40 47.5H8C3.85787 47.5 0.5 44.1421 0.5 40V8Z" stroke="#F2E2FC"/>
<path d="M24 15C24 19.9706 28.0294 24 33 24C28.0294 24 24 28.0294 24 33C24 28.0294 19.9706 24 15 24C19.9706 24 24 19.9706 24 15Z" stroke="#8347B9" stroke-width="1.5" stroke-linecap="round" stroke-linejoin="round"/>
</svg>
