<svg width="48" height="48" viewBox="0 0 48 48" fill="none" xmlns="http://www.w3.org/2000/svg">
<path d="M0.5 8C0.5 3.85787 3.85786 0.5 8 0.5H40C44.1421 0.5 47.5 3.85786 47.5 8V40C47.5 44.1421 44.1421 47.5 40 47.5H8C3.85787 47.5 0.5 44.1421 0.5 40V8Z" fill="#E6F6EB"/>
<path d="M0.5 8C0.5 3.85787 3.85786 0.5 8 0.5H40C44.1421 0.5 47.5 3.85786 47.5 8V40C47.5 44.1421 44.1421 47.5 40 47.5H8C3.85787 47.5 0.5 44.1421 0.5 40V8Z" stroke="#D6F1DF"/>
<path d="M15 24H32C32.5523 24 33 23.5523 33 23V16C33 15.4477 32.5523 15 32 15H23C22.4477 15 22 15.4477 22 16V21M33 18H22M16 21H28C28.5523 21 29 21.4477 29 22V31C29 31.5523 28.5523 32 28 32H16C15.4477 32 15 31.5523 15 31V22C15 21.4477 15.4477 21 16 21Z" stroke="#2B9A66" stroke-width="1.5" stroke-linecap="round" stroke-linejoin="round"/>
</svg>
