<svg width="48" height="48" viewBox="0 0 48 48" fill="none" xmlns="http://www.w3.org/2000/svg">
<path d="M8 0.5H40C44.1421 0.5 47.5 3.85786 47.5 8V40C47.5 44.1421 44.1421 47.5 40 47.5H8C3.85787 47.5 0.5 44.1421 0.5 40V8C0.5 3.85787 3.85786 0.5 8 0.5Z" fill="#FFF7C2"/>
<path d="M8 0.5H40C44.1421 0.5 47.5 3.85786 47.5 8V40C47.5 44.1421 44.1421 47.5 40 47.5H8C3.85787 47.5 0.5 44.1421 0.5 40V8C0.5 3.85787 3.85786 0.5 8 0.5Z" stroke="#FFEE9C"/>
<path d="M15 26H18C19.1046 26 20 26.8954 20 28V31C20 32.1046 19.1046 33 18 33H15V26ZM15 26V24C15 19.0294 19.0294 15 24 15C28.9706 15 33 19.0294 33 24V26M33 26H30C28.8954 26 28 26.8954 28 28V31C28 32.1046 28.8954 33 30 33H33V26Z" stroke="#FFB300" stroke-opacity="0.905882" stroke-width="1.5" stroke-linecap="round" stroke-linejoin="round"/>
</svg>
